<svg width="39" height="39" viewBox="0 0 134 139" fill="none" xmlns="http://www.w3.org/2000/svg">
<g clip-path="url(#clip0_326_5749)">
<path d="M132.996 68.1126C129.244 64.3703 125.697 60.4222 121.945 56.6799C120.843 55.8013 120.456 54.261 121.01 52.9376C122.552 47.5326 123.891 42.1276 125.364 36.7226C125.767 35.4048 125.562 34.8543 124.16 34.5039C118.801 33.1193 113.512 31.4567 108.083 30.0665C106.54 29.7218 105.938 28.8877 105.605 27.4308C104.266 22.0258 102.794 16.7599 101.52 11.3549C101.117 9.75897 100.649 9.41421 99.1065 9.89799C93.8819 11.4216 88.5929 12.8062 83.3683 14.1964C82.4976 14.4744 81.6913 14.6802 80.8904 13.8516C76.6011 9.28632 72.113 4.92119 67.9634 0.139017C67.4904 0.150138 67.0174 0.105653 66.5552 0C66.582 0.367004 66.3993 0.722887 66.0875 0.900828C62.067 4.98792 58.0518 9.07501 54.0958 13.2344C53.3379 14.1964 52.0586 14.5356 50.946 14.0685C45.7215 12.5449 40.4969 11.1603 35.2724 9.63108C33.7996 9.21403 33.1976 9.49206 32.7945 11.088C31.4561 16.4929 29.9134 21.8979 28.5751 27.3029C28.4353 28.4373 27.5914 29.3436 26.5003 29.5216C21.2112 30.9062 16.0512 32.4298 10.7621 33.7477C9.02062 34.1647 8.55299 34.7875 9.08512 36.6559C10.6278 41.9942 11.8318 47.4659 13.3045 52.8708C13.7775 54.0219 13.4497 55.3509 12.4983 56.1294C8.54762 60.0775 4.72596 64.1701 0.775297 68.1182C-0.294338 69.158 -0.229838 69.7808 0.775297 70.8207C4.66146 74.7687 8.41324 78.7891 12.294 82.7372C13.2508 83.4712 13.6109 84.7835 13.1648 85.9234C11.692 91.2617 10.4181 96.5944 8.8755 101.933C8.33799 103.801 8.60674 104.568 10.5525 105.052C15.7771 106.37 20.8672 107.96 26.0918 109.278C27.6344 109.623 28.2364 110.457 28.5697 111.914C29.9081 117.386 31.3808 122.724 32.7246 128.196C33.0578 129.58 33.5308 129.931 34.8692 129.514C40.0293 127.99 45.2485 126.744 50.4085 125.215C51.7791 124.681 53.3272 125.132 54.2248 126.322C57.9067 130.27 61.6585 134.084 65.3458 138.032C66.4853 139.278 67.1518 139.35 68.3612 138.099C72.0431 134.079 75.9292 130.27 79.681 126.249C80.5249 125.098 82.003 124.676 83.2984 125.21C88.4585 126.805 93.6132 128.118 98.7732 129.647C100.246 130.064 100.848 129.786 101.251 128.19C102.525 122.852 104.132 117.519 105.406 112.181C105.739 110.585 106.476 109.962 107.954 109.617C113.178 108.3 118.269 106.776 123.493 105.458C125.036 105.113 125.503 104.491 125.036 102.822C123.563 97.4173 122.225 91.8734 120.746 86.4017C120.273 85.2506 120.601 83.9216 121.553 83.1431C125.369 79.334 129.121 75.3137 133.007 71.5046C134.404 70.1256 134.27 69.4305 132.996 68.1126ZM33.6652 64.9986C33.6652 65.0042 33.6652 65.0098 33.6652 65.0153C33.6437 67.3675 31.784 69.2526 29.5103 69.2303H25.3554C23.6139 69.2303 21.8724 69.2303 20.0663 69.297C19.1311 69.297 18.8623 68.9523 19.0612 67.9792C19.5288 65.9718 19.9965 64.3758 22.5442 63.9588C25.8284 63.475 28.9728 62.2962 32.1871 61.323C33.3266 61.045 33.7942 61.184 33.6599 62.4296C33.6007 63.2637 33.6652 64.1645 33.6652 64.9986ZM33.4663 102.806C30.7036 100.114 28.231 97.6286 25.694 95.143C27.8387 93.8974 29.9134 92.7186 31.9237 91.473C33.0632 90.7779 33.4663 90.9169 33.4663 92.3738C33.4018 95.7547 33.4663 99.2134 33.4663 102.806ZM26.0327 93.6861C25.2264 94.1699 25.0275 93.9642 24.8286 93.1301C24.2266 90.6333 23.4903 88.1421 22.8882 85.6454C22.7539 85.0893 22.6894 84.3998 23.2215 84.0495C23.759 83.7047 24.1568 84.1885 24.5599 84.3942C27.3065 85.9902 30.0532 87.6528 33.203 89.4545C30.6552 90.9113 28.3063 92.2292 26.0327 93.6861ZM20.9425 56.5409C20.2706 58.2758 17.9271 58.5483 16.3898 59.6604C14.8472 55.5733 14.8472 55.5733 17.5293 52.7318C19.4052 50.7911 21.2811 48.9228 23.157 46.9821C23.329 46.8709 23.5064 46.7819 23.6945 46.704C22.7485 50.1683 22.1465 53.4936 20.9425 56.5409ZM24.9576 45.9422C25.092 45.3194 25.5597 45.4585 25.8929 45.6642C28.1719 47.0488 30.3811 48.4334 32.9235 49.9626C29.3061 52.109 26.0219 54.0497 22.2755 56.1294C23.2161 52.4538 24.0869 49.1952 24.9576 45.9422ZM17.9271 64.1645C17.1907 64.1645 17.1907 63.4027 17.0563 62.919C16.3199 60.6335 16.4543 60.4945 20.4749 58.7596C20.0986 60.3555 19.7385 61.6678 19.4321 62.919C19.33 63.6808 18.6688 64.2313 17.9271 64.1645ZM13.9065 65.3434C11.3588 66.0385 8.81637 66.6613 6.2686 67.2841L6.06972 67.006L15.3148 61.3953C16.8574 64.3758 16.7876 64.5816 13.9065 65.3434ZM15.8523 65.8995C17.5938 65.4824 17.0563 67.3564 17.395 68.1182C17.7282 68.88 17.2606 69.2248 16.4597 69.2248H5.53759C5.53759 69.0857 5.47309 68.88 5.47309 68.741C8.88625 67.8401 12.2994 66.8003 15.8523 65.8995ZM18.4753 72.4555C19.1418 75.0746 19.8083 77.6936 20.5662 80.5185C15.4868 77.9606 16.1426 79.4008 18.4753 72.4555ZM16.7499 79.8957C18.427 79.8289 21.437 82.7372 21.437 84.3331C21.007 85.5119 20.0986 86.6185 19.2278 87.8697C19.1633 87.8697 19.0935 87.9364 19.029 87.9364C18.3571 88.0754 15.0783 83.916 15.2127 83.1542C15.2772 83.0152 15.2772 82.8762 15.3471 82.7372C15.8093 81.7641 15.2772 79.9624 16.7499 79.8957ZM18.2227 91.3284C18.8946 90.2886 19.3622 89.8715 20.2975 91.0504C21.1629 92.0735 22.0766 93.0411 23.0441 93.9586C23.3774 94.3756 24.0493 94.7204 23.1785 95.2765C19.3622 97.4952 15.4761 99.7806 11.6598 101.999C11.5523 101.899 11.4663 101.782 11.391 101.655C13.6378 98.1903 15.9168 94.7927 18.2227 91.3284ZM21.9476 86.0624C22.5496 88.2812 23.0871 90.4999 23.6891 92.852C19.3353 89.6658 19.201 89.2487 21.9476 86.0624ZM23.5548 81.2803C22.8184 82.4591 22.0121 81.9754 21.7487 81.0022C20.8135 77.677 19.9427 74.3517 19.1365 71.0264C18.8032 69.9198 19.7385 70.1923 20.276 70.1923H30.9239C28.3063 74.1459 25.9628 77.7492 23.5548 81.2803ZM33.0632 60.0775C28.9782 61.184 24.8931 62.2962 20.6039 63.475C20.8726 59.4547 22.211 56.8245 25.7639 55.3676C28.4407 54.261 30.8541 52.4593 33.7351 50.7967V59.1099C33.7942 59.5603 33.504 59.9885 33.0632 60.0775ZM33.6652 38.8023V49.1285C31.1873 47.6716 28.9782 46.287 26.8335 44.9691C26.0972 44.5521 25.8983 44.135 26.6347 43.3732C28.4407 41.5715 30.1822 39.7699 31.9237 37.9015C32.2516 37.4066 32.8751 37.2342 33.3965 37.4845C33.934 37.6958 33.6652 38.3186 33.6652 38.8023ZM26.2315 41.6438C26.9034 36.7226 27.2367 36.3779 30.7197 37.4845C29.1771 38.9414 27.6398 40.326 26.2315 41.6438ZM33.1331 14.9693C33.2675 15.036 33.4663 15.036 33.6007 15.1083V24.3224C33.6007 28.1314 33.6007 28.1314 29.5157 28.6875C30.7197 24.0443 31.9237 19.4735 33.1331 14.9693ZM28.7094 31.529C28.9782 29.7273 30.3166 29.9331 31.4561 29.4493C33.3965 28.6152 33.7996 29.516 33.6007 31.251V32.0851C33.6007 35.8274 31.7947 37.212 28.4407 35.9664C28.0375 35.8274 27.7688 35.6884 27.8387 35.2713C28.1074 34.0202 28.5106 32.7746 28.7094 31.529ZM13.3045 34.3705C18.0883 33.1249 22.8829 31.807 27.9085 30.4891C27.5054 32.1518 27.1722 33.4697 26.8389 34.8543C26.5702 35.9608 25.7693 35.7551 25.0329 35.6884C21.1467 35.3436 17.1961 35.0656 13.2454 34.7208C13.2938 34.6096 13.3153 34.4873 13.3045 34.3705ZM25.092 36.7226C26.0273 36.7894 26.2315 37.1397 26.0273 38.1073C24.8233 43.7903 24.8878 43.7903 20.1309 40.8765C17.653 39.3528 15.1052 37.8292 12.3585 36.1666C16.8574 35.7551 21.007 36.5169 25.092 36.7226ZM10.5579 37.073C10.4934 36.8672 10.4934 36.7282 10.4235 36.5169C10.6224 36.5169 10.7568 36.5836 10.961 36.5836C14.9816 39.0081 19.0666 41.5048 23.2161 43.9293C23.6193 44.2073 24.2213 44.3463 23.5494 45.1081C20.8027 48.0164 18.126 50.9969 15.4438 53.9774C15.1858 53.8884 14.9386 53.7772 14.7074 53.6326C13.3045 48.0887 11.9661 42.617 10.5579 37.073ZM14.0409 56.3351C14.2398 56.5409 14.444 56.6132 14.444 56.6799C15.3793 60.2165 15.3793 60.2165 12.2994 62.0181C10.0204 63.4027 7.67686 64.7206 5.13446 66.1775C8.21437 62.7076 11.0954 59.5214 14.0409 56.3351ZM3.19407 70.1923C7.48336 70.1923 11.7028 70.1923 15.9867 70.1256C17.1262 70.1256 17.5938 70.3313 17.1262 71.7215C16.4543 73.5899 16.5242 76.5704 15.3202 77.1932C13.9119 77.955 11.9715 75.6696 10.2945 74.7687C7.88111 73.4509 5.53759 71.9272 3.12957 70.5426C3.15107 70.4259 3.17794 70.3091 3.19407 70.1923ZM4.86571 73.2451L4.93021 73.1784C8.34874 74.4963 11.2943 76.715 14.4387 78.5166C15.3094 79.0004 15.1106 80.2516 13.8367 82.8817C10.7621 79.6844 7.67686 76.6371 4.86571 73.2451ZM14.5085 85.5064C14.7074 85.5731 14.9117 85.5731 14.9762 85.6454C18.4592 89.1097 18.4592 89.1097 15.7126 93.1968C14.2398 95.4155 12.6972 97.5619 11.2244 99.7083L10.8911 99.4303L14.5085 85.5064ZM10.4235 104.007C15.1106 101.238 19.33 98.7408 23.6193 96.244C24.1568 95.8993 24.4255 95.966 24.6244 96.6611C25.6295 100.609 26.6347 104.491 27.7742 108.856C21.8132 107.126 16.3844 105.603 10.4235 104.007ZM33.2943 124.242C33.16 124.242 33.0256 124.309 32.8912 124.309C31.6872 119.805 30.5477 115.3 29.3437 110.657H29.3168C29.7844 110.591 29.9188 110.518 30.0801 110.591C33.2943 111.352 33.2943 111.352 33.2943 114.817V124.242ZM33.4018 110.107C32.9342 110.174 32.8643 110.246 32.8643 110.246C29.9188 110.04 28.3117 108.511 27.9085 105.397C27.5054 102.761 26.7045 100.27 26.4358 97.4952C28.5804 99.7139 30.8541 101.794 32.7998 104.218C34.2027 105.947 32.8643 108.099 33.4018 110.107ZM33.6652 76.8484L33.4663 86.5518C33.4663 87.7974 33.2675 88.3534 31.9936 87.5193C29.7146 86.1347 27.4409 84.7501 25.092 83.499C24.0869 82.9429 24.0869 82.4591 24.6889 81.5583C27.0324 78.094 29.3759 74.6297 31.655 71.0931C31.9183 70.4815 32.558 70.1367 33.1976 70.259C34.1329 70.398 33.6652 71.1599 33.6652 71.6436C33.7351 73.3786 33.6652 75.1135 33.6652 76.8484ZM91.2696 44.1406C89.2594 42.756 86.7815 42.1999 85.9107 39.4974C85.5613 38.7245 85.5882 37.8237 85.9752 37.073C87.7167 34.0925 89.3937 31.1119 91.0009 28.1314C91.6728 26.9526 92.0705 27.1639 92.9413 27.9257C94.414 29.2436 94.9515 30.5614 94.2797 32.5688C93.1455 36.3779 92.2748 40.2592 91.2696 44.1406ZM99.644 96.3886C99.644 102.138 99.644 102.138 94.0862 101.655C91.4094 101.449 88.6627 101.171 85.9806 100.959C85.3087 100.893 84.7766 100.82 84.5723 99.9919C84.3734 99.1578 85.1098 99.0911 85.5775 98.8131C89.7969 96.3886 93.9518 93.9642 98.1013 91.4674C99.3752 90.7056 99.7783 91.0504 99.644 92.5073C99.5741 93.8251 99.644 95.0707 99.644 96.3886ZM75.4616 113.916C73.1826 112.181 70.5703 110.869 67.958 109.273C70.3714 107.888 72.5806 106.57 74.8596 105.186C75.252 104.874 75.811 104.935 76.1335 105.325C79.079 108.372 82.0944 111.425 85.1743 114.611C84.7712 114.956 84.7067 115.028 84.7067 115.028C81.4225 116.552 78.4125 116.274 75.4616 113.916ZM78.2083 116.83C74.7252 117.73 71.6453 118.631 68.5654 119.465C67.829 119.671 67.5603 119.465 67.5603 118.631V110.318C71.2422 112.531 74.5264 114.539 78.2083 116.83ZM44.1842 113.432C43.2489 113.154 43.7166 112.598 43.9853 112.114C45.7268 108.995 47.5329 105.875 49.4087 102.483C51.3491 106.709 53.1605 110.591 54.902 114.472C55.5739 115.857 54.902 116.34 53.8324 116.068C50.6128 115.306 47.3985 114.333 44.1842 113.432ZM53.0262 116.969C48.6079 120.016 48.4735 119.949 44.5873 114.611C47.463 115.439 50.1451 116.135 53.0262 116.969ZM42.8727 96.1773C42.9372 95.8325 43.1414 95.4822 43.5446 95.7603C44.9528 96.6611 46.6245 97.0781 47.6296 98.6018C48.6347 100.125 49.0379 101.649 47.764 103.451C46.2375 105.769 44.8722 108.205 43.6789 110.724C42.6738 112.731 41.8729 112.592 40.7334 111.002C40.2658 110.307 39.3252 109.962 39.5294 108.856C40.6313 104.635 41.7063 100.403 42.8727 96.1773ZM34.6059 29.9331C34.5951 29.8775 34.5844 29.8163 34.5844 29.7607C34.5252 28.9989 35.0789 28.3316 35.8152 28.2704C37.288 27.9924 38.7608 27.5753 40.2335 27.1639C40.4109 27.1305 40.5937 27.1305 40.771 27.1639C40.6474 27.2473 40.5507 27.3696 40.5023 27.5086C38.6264 29.377 36.7505 31.3177 34.6059 33.4697C34.6059 32.1518 34.6704 31.0452 34.6059 29.9331ZM35.0735 34.7875C37.4869 32.1518 39.9648 29.5883 42.6416 26.7468C44.7163 30.4891 46.5277 33.8144 48.6724 37.5567C43.9154 37.212 39.5617 36.934 35.2777 36.4502C34.0039 36.3112 34.536 35.338 35.0735 34.7875ZM57.9121 25.0174C60.39 27.0248 63.3355 28.4817 66.3509 30.2834C63.9375 31.7403 61.7982 32.9859 59.6536 34.3038C59.1161 34.6485 58.7183 34.8598 58.1808 34.3038C55.2353 31.1842 52.2199 28.137 49.0701 24.8784C52.2898 23.5605 54.9665 22.6597 57.9121 25.0174ZM56.1061 22.7987C59.5246 21.8312 62.5346 20.9971 65.6145 20.163C66.3509 19.9572 66.754 20.024 66.754 20.9971V29.2436C63.1366 27.0916 59.788 25.0174 56.1061 22.7987ZM64.2385 51.831C63.5666 50.9969 62.497 51.8977 61.6907 52.109C58.3421 52.9431 58.4066 53.0098 56.6651 49.8903C55.1923 47.1211 53.7195 44.3463 52.1124 41.6438C51.5104 40.5373 51.5749 39.9812 52.7144 39.4974C53.3863 39.2194 53.9883 38.8746 54.5903 38.5966C55.9986 37.9738 57.2671 36.3112 58.6108 36.5892C60.1535 36.934 61.0887 38.8079 62.2927 39.9868C66.0177 43.8681 69.6996 47.8162 73.5212 51.5585C74.9617 52.9264 75.8486 54.8059 75.9991 56.8245C71.6722 56.0627 67.4259 55.3676 63.2334 54.539C63.2334 54.4 63.1689 54.261 63.2334 54.122C63.4323 53.2879 64.9749 52.7985 64.2385 51.831ZM34.6704 43.0284L34.6972 42.3334C34.6972 37.4122 34.6972 37.4122 39.3198 37.7625C42.2653 37.9682 45.2807 38.3186 48.2262 38.5243C48.8981 38.591 49.4732 38.591 49.6721 39.4251C49.871 40.2592 49.1346 40.326 48.7369 40.604L36.0786 48.0887C34.7402 48.9228 34.6059 48.2944 34.6704 47.1211C34.7402 45.7309 34.6704 44.4186 34.6704 43.0284ZM38.8898 47.6716C42.4373 45.8699 45.7215 43.7903 49.0701 41.7106C50.344 40.8765 50.8116 41.2935 51.4136 42.4724C53.0208 45.6586 54.7623 48.7782 56.5737 51.8254C57.3101 53.071 57.1112 53.4213 55.7674 53.7661C49.4034 55.4287 43.0393 57.2304 36.6806 59.032C35.2724 59.4491 34.7402 59.3101 34.9391 57.7142C35.0036 56.7466 34.9391 55.7068 34.9391 54.1109C33.7996 50.8634 35.8797 49.1285 38.8898 47.6716ZM34.7402 67.7679C34.8047 66.867 34.9391 65.8995 34.9391 64.9986C35.0036 60.6335 35.0036 60.6335 38.9596 59.5269C44.1197 58.1423 49.2744 56.7577 54.4344 55.2285C56.5092 54.6058 58.5195 54.3277 60.7286 55.4343C57.9175 58.8986 55.1708 62.3629 52.4886 65.8272C51.5534 65.1321 51.9511 63.3304 50.8116 63.4695C49.8065 63.6085 50.0753 65.1321 49.742 66.0329C49.5001 66.7058 49.3227 67.4009 49.2045 68.1126C49.2045 68.1293 49.1991 68.1515 49.1991 68.1682C49.0755 68.9523 48.3606 69.4861 47.5974 69.3582C43.7811 69.2915 39.9594 69.2192 36.1431 69.2915C34.9391 69.2915 34.6059 68.8077 34.7402 67.7679ZM49.0056 23.6273C48.323 23.8831 47.5651 23.5494 47.2641 22.8655C46.7965 22.1037 47.5329 21.8256 47.8661 21.4809C49.4732 19.6792 49.5431 19.6792 53.225 22.4484C51.6824 22.8655 50.2795 23.1435 49.0056 23.6273ZM47.4899 20.2353C46.6191 21.5531 45.8128 21.6199 44.6787 20.302C43.0017 18.3613 41.1312 16.5597 39.3198 14.6913C39.3843 14.5523 39.4542 14.3465 39.5187 14.2075C42.6416 15.4531 45.2538 17.6718 48.0919 19.1287C48.1617 19.7459 47.6941 19.8849 47.4899 20.2353ZM50.0108 27.3696C52.5585 29.9331 55.0364 32.4965 57.7831 35.2713C56.5307 36.1277 55.2353 36.9173 53.8969 37.629C52.0264 38.5021 49.8226 37.7124 48.8712 35.8274C47.1297 32.6411 45.3882 29.5216 43.6467 26.3353C47.463 24.7394 47.463 24.8061 50.0108 27.3696ZM34.536 71.994C34.536 70.6761 34.7349 70.1256 36.213 70.1923C39.8304 70.3313 43.4478 70.259 47.0652 70.259C48.0005 70.259 48.538 70.398 48.2047 71.5769C46.2643 78.8503 44.3884 86.1292 42.4427 93.6138C41.2387 92.852 40.2335 92.296 39.2929 91.7455C34.3371 88.8372 34.3371 88.8372 34.4715 83.0152C34.6059 79.3396 34.6059 75.6696 34.536 71.994ZM50.5483 102.277C50.215 101.655 50.0107 101.098 50.6128 100.542C51.0804 100.059 51.4835 100.542 51.8866 100.748C56.5092 103.517 61.0619 106.359 65.8833 109.273C63.0022 111.008 60.39 112.598 57.8476 114.194C56.9768 114.817 56.3748 115.028 55.8373 113.71C54.1657 109.901 52.3543 106.086 50.5483 102.277ZM49.2744 97.7732C48.7369 97.4285 48.2692 97.0114 47.7317 96.6666C46.3235 95.6268 43.9799 95.4211 43.6467 93.7584C43.3134 92.2348 44.3186 90.3608 44.7862 88.6315C46.1246 83.6436 47.5329 78.7224 48.6724 73.6622C49.0647 71.5324 50.2419 69.6474 51.9565 68.3962C53.2949 72.2053 54.5688 75.9476 56.0416 79.4842C56.4447 80.7298 56.3748 81.2191 54.9719 80.9411C54.5043 80.8743 53.9023 80.663 53.6335 81.2191C53.3648 81.7752 53.9668 82.0532 54.2355 82.4647C55.1708 83.7826 57.3154 84.5444 57.1811 86.2738C57.0467 87.7307 55.7728 89.1153 54.9719 90.5722C53.698 92.7909 52.4241 95.0096 51.2201 97.295C50.6826 98.3293 50.1451 98.4627 49.2744 97.7732ZM57.1757 80.3127C55.7674 76.3646 54.3645 72.3443 52.9563 68.3962C52.5854 67.6844 52.7252 66.8059 53.2895 66.2498C56.0362 62.9912 58.713 59.666 61.3252 56.3407C61.7176 55.7234 62.4486 55.4399 63.1312 55.6456C67.1518 56.4074 71.2368 57.1692 75.252 57.8643C76.155 57.9533 76.9075 58.6206 77.1279 59.5269C78.4663 63.336 79.8047 67.2173 81.2129 71.032C81.6268 71.8661 81.4602 72.8781 80.8098 73.5287C78.1975 76.6482 75.6497 79.9012 73.0375 83.0931C72.5698 83.6491 72.2312 84.3386 71.4948 83.9939C67.0765 83.2321 62.8517 82.4703 58.5678 81.7084C57.7132 81.5583 57.4444 81.0022 57.1757 80.3127ZM71.1078 85.0226C71.1078 86.2015 69.3018 86.7575 70.0382 87.6584C70.7746 88.5592 72.0485 87.7251 72.9192 87.3136C75.2627 86.207 76.4667 87.1079 77.5418 89.321C78.8801 92.2292 80.5572 95.004 82.1643 97.7732C82.8362 98.9521 82.7018 99.5749 81.4924 100.059C80.713 100.387 79.9551 100.754 79.2134 101.165C75.5315 103.245 75.5315 103.245 72.6505 100.264C68.8342 96.3163 65.0824 92.3627 61.2661 88.4869C59.7933 86.9633 58.3851 85.4397 58.3851 82.7372C62.669 83.499 66.8884 84.2608 71.1078 85.0226ZM85.2442 115.996C85.9322 115.729 86.7008 116.023 87.0502 116.691C87.4533 117.386 86.717 117.658 86.3783 118.075C84.7712 119.877 84.7712 119.877 81.0893 117.108C82.6319 116.691 83.9703 116.413 85.2442 115.996ZM84.3734 112.604C82.2288 110.04 79.8208 107.755 77.4719 105.397C76.5366 104.429 76.6011 104.012 77.8051 103.456C79.2779 102.761 80.4174 101.377 82.2933 101.794C83.9004 101.377 84.7067 102.35 85.4431 103.801C86.9158 106.642 88.4585 109.412 90.0656 112.186C90.5332 113.087 90.4688 113.432 89.4636 113.849C87.4533 114.678 85.9107 114.472 84.3734 112.604ZM95.3815 91.8845C91.8985 93.6861 88.5499 95.8325 85.2012 97.8455C84.1316 98.4683 83.5941 98.5406 82.9222 97.2894C81.2452 93.9642 79.4391 90.7056 77.5633 87.5193C76.8914 86.4128 77.2945 86.0624 78.2996 85.7844C84.8626 84.0495 91.361 82.3201 97.8594 80.4462C99.1333 80.1014 99.5365 80.3072 99.4021 81.625C99.3376 82.6649 99.4021 83.7715 99.4021 85.4341H99.3752C100.515 88.6926 98.4614 90.4276 95.3815 91.8845ZM99.5741 72.0663C99.5096 72.9004 99.3752 73.8012 99.3752 74.6297C99.3107 78.9948 99.3107 78.9281 95.1558 80.1014C90.1301 81.486 85.1098 82.8706 80.0842 84.3275C77.9395 84.9503 75.7949 85.4341 73.5857 84.1218L81.8902 73.8679C82.8254 74.4907 82.3578 76.3646 83.4973 76.1533C84.6368 75.9476 84.4326 74.3517 84.7013 73.3841C85.5721 70.2646 85.5721 70.2646 88.652 70.2646C91.7319 70.2646 94.8817 70.3313 98.0314 70.2646C99.3752 70.2646 99.7085 70.8151 99.5741 72.0663ZM85.5076 66.728C85.04 68.6687 84.0348 69.9143 82.4277 71.2321C80.885 66.9338 79.4822 62.8467 78.0094 58.7596C78.9446 58.0645 80.3798 59.3156 80.6862 58.1368C81.0194 57.2359 79.681 56.6132 79.0091 55.9181C76.8 53.5603 76.8 53.6326 78.4071 50.7188C79.9498 48.0164 81.5569 45.4529 82.8953 42.6781C83.7016 41.0155 84.5024 41.1545 85.7065 42.1221C86.0935 42.4446 86.4966 42.7449 86.9105 43.0229C88.1145 43.9904 90.329 44.2685 90.6622 45.7254C90.9955 47.1823 90.0602 48.9116 89.6571 50.5075C88.3241 55.9181 86.7815 61.323 85.5076 66.728ZM90.1301 26.1907C91.0009 26.3965 90.5978 27.0248 90.329 27.5086C88.5875 30.6282 86.846 33.7477 84.9056 37.1397C82.8953 32.9136 81.1538 28.9655 79.4123 25.1509C78.8103 23.833 79.3478 23.2825 80.4819 23.555C83.7016 24.3224 86.9158 25.2899 90.1301 26.1907ZM81.358 22.5874C86.1795 19.5402 84.3036 18.8451 89.9312 25.0119C86.7815 24.1833 84.1692 23.4215 81.358 22.5874ZM83.7661 37.1397C84.0348 37.6958 84.3681 38.3186 83.8306 38.9414C83.1587 39.7032 82.6911 38.9414 82.2234 38.6633C77.6708 35.9608 73.1826 33.1916 68.4257 30.2778C71.4411 28.4762 74.2522 26.8135 76.9344 25.1509C77.8051 24.5948 78.1384 24.9452 78.477 25.707C80.2185 29.516 82.0245 33.3306 83.7661 37.1397ZM93.3444 25.985C92.4091 25.985 92.8069 25.2232 93.0756 24.7394C94.7527 21.7589 96.4243 18.8507 98.1013 15.8701C98.2841 15.8813 98.4668 15.9313 98.6388 16.0092C97.7949 19.2677 97.0317 22.6597 95.9621 25.9183C95.489 27.5086 94.285 25.985 93.3444 25.985ZM96.6931 16.2149C95.0859 19.1231 93.4089 22.0369 91.8018 24.9452C89.9957 23.0045 88.3832 21.2028 86.6417 19.3344C90.458 17.049 94.3442 14.3465 98.4991 12.2668C98.4346 13.8572 97.3649 14.9693 96.6931 16.2149ZM84.7336 15.1083C88.2811 14.0685 91.834 13.1677 95.4514 12.2001L95.6503 12.6172H95.6234C92.436 14.4855 89.2594 16.6375 86.0075 18.3669C84.6691 19.062 83.7983 17.2603 83.2608 16.1482C82.7233 15.036 84.1961 15.2418 84.7336 15.1083ZM80.9549 16.0092C82.4277 16.4929 83.1641 17.9498 84.2391 18.8507C84.2928 19.0453 84.2391 19.2566 84.1047 19.4067C82.6857 20.3965 81.1807 21.2529 79.6165 21.9702C78.477 22.3872 75.7304 18.923 76.069 17.6718C76.069 17.4661 76.4022 17.2548 76.6065 17.188C78.0094 16.771 79.4123 16.4207 80.9549 16.0092ZM80.0842 14.9693C80.0465 15.0027 80.0197 15.0527 80.0197 15.1083C75.6014 16.7042 75.5315 16.7042 73.5212 12.3391C72.4516 9.9814 71.3766 7.69596 70.2371 5.1325C71.9141 5.82202 79.0145 13.0286 80.0842 14.9693ZM67.829 3.88135C68.0279 3.88135 68.1623 3.81462 68.3665 3.81462C70.1726 7.76269 71.984 11.7163 73.79 15.5254C74.1232 16.2205 74.1931 16.632 73.3223 16.9823C68.0978 19.1287 67.829 18.9897 67.829 13.3122V3.88135ZM69.0331 20.2353C71.3766 20.9971 73.7201 21.6199 76.0636 22.2427C76.6011 22.3817 77.1333 22.5207 77.2676 23.2102C77.3321 23.6273 77.0688 23.833 76.7301 24.0443C73.7846 25.7793 70.9036 27.5809 67.6893 29.516V21.2751C67.6248 20.163 68.0279 19.8849 69.0331 20.2353ZM68.861 31.7347C73.1503 34.4372 77.4343 37.073 81.788 39.6364C82.8577 40.2592 82.9276 40.743 82.3255 41.7829C80.3852 44.9691 78.6436 48.2277 76.8323 51.4862C76.3646 52.387 76.026 52.8041 75.0907 51.831C69.9307 46.565 64.776 41.3658 59.3526 35.8941H59.3257C62.0025 34.2982 64.217 33.0526 66.3832 31.668C67.1357 31.1342 68.1354 31.162 68.861 31.7347ZM54.9289 14.2075C58.7183 10.1871 62.4701 6.16678 66.2219 2.15198C66.4208 2.291 66.5552 2.43001 66.7594 2.56903L66.7863 17.188C66.7863 18.2279 66.3832 18.5059 65.5124 18.2279C61.895 17.188 58.2131 16.1482 54.3914 15.0416C54.5473 14.7413 54.7247 14.4633 54.9289 14.2075ZM54.0958 16.2149C57.4444 17.1157 60.863 18.0166 64.2116 18.9841V19.4679C61.5349 20.2297 58.7882 20.9915 56.0416 21.8256C53.7625 22.3817 52.4241 20.3687 50.6826 19.5402C50.5483 19.4735 50.4838 19.1231 50.4838 18.9841C50.5483 18.2223 53.3594 16.0092 54.0958 16.2149ZM51.7523 15.3808C49.742 18.7784 49.5431 18.8451 46.6621 17.0434C44.1842 15.4475 41.4375 14.1352 39.1585 12.1945C43.5392 12.7506 47.5597 14.5523 51.7523 15.3808ZM38.019 14.6913C40.298 17.049 42.6416 19.4012 44.7862 21.8979C45.9257 23.2825 44.0498 23.5605 43.6467 24.3224C43.3134 24.9452 42.8404 25.0174 42.4427 24.2556C40.7657 21.2084 39.094 18.2279 37.417 15.1806C37.6213 15.036 37.8201 14.8303 38.019 14.6913ZM34.6059 21.6199C34.4715 18.7116 34.5414 15.8701 34.5414 12.9564C34.6811 12.9397 34.8209 12.8952 34.9445 12.8173C37.0891 16.6987 39.2338 20.58 41.373 24.5281C41.8407 25.2899 41.7063 25.707 40.8355 25.846C40.771 25.846 40.7012 25.9127 40.6367 25.9127C38.7608 26.3965 36.4172 27.8534 35.1434 27.1583C33.6652 26.3298 34.6704 23.5605 34.6059 21.6199ZM34.3371 101.582C34.6704 97.979 34.4016 94.3089 34.4016 90.2163C37.0139 91.8122 39.223 93.1245 41.4322 94.4424C42.1686 94.9262 41.9697 95.4822 41.7654 96.105C40.6958 100.125 39.6907 104.146 38.5511 108.578C36.6161 106.364 34.0039 105.186 34.3371 101.582ZM34.6059 106.159C35.6755 107.265 36.6806 108.305 37.6858 109.278C38.2878 109.834 38.0889 110.385 37.8846 111.013C37.6159 111.981 36.9494 111.291 36.5463 111.219C34.0039 110.663 33.7351 110.107 34.6059 106.159ZM34.4016 124.314C34.3371 124.314 34.2672 124.248 34.2027 124.248C34.2027 120.16 34.2027 116.14 34.1382 112.12C34.3371 112.053 34.4715 111.914 34.5414 111.914C37.4869 112.537 37.4224 112.609 36.686 115.517C35.9442 118.42 35.1434 121.4 34.4016 124.314ZM35.611 123.758C36.4818 120.5 37.288 117.174 38.2233 113.921C38.7608 111.914 40.0992 113.577 40.9 113.643C42.2384 113.849 41.3032 114.75 41.0344 115.239C39.6262 117.803 38.2233 120.299 36.7451 122.863C36.4817 123.274 36.4119 123.825 35.611 123.758ZM35.6755 127.15C37.9545 122.991 40.2282 118.765 42.5072 114.539C44.582 116.274 46.1246 118.209 47.9306 120.149C43.7757 122.574 39.9594 125.21 35.8099 127.289L35.6755 127.15ZM38.6909 127.289C41.5719 124.865 44.8507 123.13 48.0704 121.4C49.8119 120.566 50.215 122.996 51.9565 123.964C47.0652 125.143 43.0447 126.739 38.6909 127.289ZM53.4938 123.547C52.8219 123.48 50.0753 121.05 50.0753 120.566C50.0322 120.427 50.0538 120.272 50.1398 120.149C50.4085 119.593 54.6279 117.514 55.2299 117.586C57.4391 117.864 57.3047 120.149 58.2453 121.534C58.5141 121.951 58.1808 122.296 57.8422 122.368C56.3748 122.785 54.902 123.202 53.4938 123.547ZM58.1808 118.42C60.4598 119.043 62.4002 119.599 64.5449 120.155C60.1911 122.44 59.3902 122.235 58.1808 118.42ZM54.8322 125.699C53.8969 124.865 53.9614 124.52 55.2353 124.175C58.9172 123.135 58.9172 123.069 60.5243 126.6C61.7982 129.441 63.1366 132.283 64.4105 135.124C61.1962 131.866 57.9819 128.746 54.8322 125.699ZM66.3509 131.104V135.814C66.2165 135.814 66.152 135.88 66.0176 135.88C64.2116 131.999 62.4002 128.051 60.5243 124.17C60.0567 123.13 60.1911 122.785 61.3306 122.435C66.4208 120.911 66.4208 120.839 66.4208 126.383C66.4208 127.984 66.3509 129.508 66.3509 131.104ZM66.6197 114.817C66.6197 119.738 66.6197 119.738 62.067 118.487C60.7286 118.142 59.3902 117.725 58.0465 117.38C57.5089 117.241 57.1112 116.963 57.0413 116.413C56.9768 115.857 57.4444 115.717 57.7777 115.512C60.2556 113.988 62.8034 112.531 65.2813 110.941C66.5552 110.107 66.6895 110.735 66.6197 111.842V114.817ZM65.5769 107.821C61.2231 105.119 56.8693 102.483 52.451 99.8529C51.6448 99.3691 51.3814 98.9521 51.9135 98.0513C54.0582 94.3812 56.0684 90.7056 58.2776 86.8243C63.6365 92.3682 68.7643 97.7009 74.0157 103.039C74.6177 103.662 74.6876 103.94 73.8813 104.424C71.8711 105.53 69.9307 106.781 67.9204 107.96C67.184 108.4 66.2595 108.35 65.5769 107.821ZM79.079 125.627C75.4616 129.575 71.7797 133.456 68.1623 137.404L67.5603 136.987C67.5603 132.066 67.5603 127.15 67.4958 122.157C67.4958 121.189 67.9634 121.117 68.6998 121.323C72.1183 122.29 75.5315 123.33 78.95 124.231C80.3529 124.587 79.5466 125.143 79.079 125.627ZM79.9498 123.413C76.6656 122.513 73.317 121.545 70.0382 120.644C70.0919 120.489 70.1134 120.322 70.1027 120.16C72.8493 119.399 75.6874 118.498 78.477 117.875C80.6217 117.391 81.8955 119.332 83.6371 120.16C83.7231 120.333 83.7661 120.522 83.7714 120.717C83.6317 121.612 80.8205 123.619 79.9498 123.413ZM94.4839 127.428C90.5333 126.322 86.5826 125.282 82.6265 124.17C84.0348 121.05 84.8357 120.772 87.5178 122.435L94.7527 126.8C94.6344 127 94.5484 127.211 94.4839 127.428ZM95.0483 125.838C92.0329 123.97 89.0874 122.096 85.7387 120.088C86.3138 119.604 86.717 119.393 86.9427 119.048C87.8135 117.803 88.4854 117.942 89.4905 119.048C90.9633 120.783 92.6403 122.307 94.1775 123.97C94.6452 124.448 95.3815 124.798 95.0483 125.838ZM96.2254 124.726C93.9464 122.44 91.8071 120.155 89.727 117.864C88.4531 116.34 90.2645 115.996 90.7966 115.3C91.533 114.122 91.8663 115.367 92.135 115.857L95.9513 122.718C96.4404 123.269 96.5479 124.064 96.2254 124.726ZM99.7085 126.6C99.5741 126.666 99.5096 126.666 99.3752 126.739C97.2306 122.93 95.1128 119.048 92.9466 115.167C92.479 114.333 92.5435 113.921 93.5487 113.71C95.5589 113.226 97.5692 112.604 99.7085 112.047V126.6ZM94.6183 112.114C96.2953 110.452 98.1013 108.65 99.7085 106.987C99.9127 111.564 99.4397 112.047 94.6183 112.114ZM99.171 104.98C96.8274 107.616 94.414 110.318 91.8018 113.226C89.5926 109.206 87.7812 105.814 85.642 102.072C90.329 102.489 94.6183 102.767 98.8377 103.178C100.31 103.317 99.7783 104.285 99.171 104.98ZM99.8052 52.4538C99.7407 57.4417 99.7407 62.3629 99.7407 67.3508C99.8052 68.8077 99.472 69.4972 97.8003 69.4305C94.2528 69.2247 90.6999 69.3638 87.1523 69.3638C86.2816 69.3638 85.814 69.297 86.0827 68.1849C88.0231 60.8448 89.9635 53.5047 91.9039 46.0256C94.3065 47.4047 96.5103 48.717 98.6711 50.1683C99.4612 50.6188 99.9127 51.5251 99.8052 52.4538ZM99.9772 39.0136C99.5741 42.2722 99.9127 45.5975 99.9127 49.3398C97.3004 47.8162 95.1182 46.4316 92.8821 45.1804C92.8821 45.1804 92.8768 45.1804 92.8768 45.1749C92.4145 44.9636 92.2103 44.4075 92.4145 43.9293C93.554 39.7699 94.6237 35.5438 95.7632 31.1119C98.3002 33.2584 100.445 35.199 99.9772 39.0136ZM99.5741 33.9534C98.4614 32.5688 97.6337 31.4567 96.6931 30.4169C96.2469 29.9609 96.1394 29.2602 96.4243 28.6819C96.7576 27.8478 97.3596 28.2649 97.8326 28.3372C100.31 28.8265 100.515 29.4493 99.5741 33.9534ZM99.1333 27.5809C98.397 27.2361 96.6554 27.9257 97.1231 25.985C97.9938 22.5207 98.9291 19.1231 99.7998 15.6588H100.106C100.106 19.2622 100.106 22.7987 100.069 26.3965C100.069 27.0248 100.337 28.2037 99.1333 27.5809ZM129.045 66.1775C128.981 66.2442 128.981 66.3832 128.911 66.4555C125.831 64.6539 122.681 63.058 119.8 61.0506C118.328 59.944 120.134 58.3481 120.134 57.0302C123.154 60.0774 126.1 63.1247 129.045 66.1775ZM100.982 73.0338C101.918 71.0264 103.261 69.5695 105.938 70.4703C108.513 70.4703 111.227 70.5371 114.044 70.4703C115.113 70.4703 115.318 70.8874 115.113 71.9272C114.71 73.8679 114.108 75.1858 111.829 75.5973C108.615 76.2201 105.401 77.2599 102.186 78.233C101.047 78.5778 100.445 78.372 100.644 77.0542C100.848 75.7363 100.31 74.3517 100.982 73.0338ZM100.848 36.7226C103.595 39.4919 106.073 41.9219 108.62 44.4853C106.411 45.8032 104.267 47.0488 102.122 48.2944C101.251 48.7782 100.848 48.7114 100.848 47.5993V36.7226V36.7226ZM108.282 45.9422C109.088 45.4585 109.287 45.7365 109.486 46.565C110.088 49.0618 110.824 51.5529 111.426 54.0497C111.663 54.6002 111.523 55.2452 111.093 55.6456C110.555 55.9904 110.222 55.4399 109.819 55.2285C107.008 53.6326 104.191 51.97 101.176 50.1683C103.729 48.6447 106.008 47.3268 108.282 45.9422ZM115.14 41.9942C117.484 40.6096 119.827 39.2917 122.171 37.9071C122.305 37.8403 122.44 37.9071 123.042 37.9071H123.015C120.467 41.7161 118.123 45.2527 115.877 48.717C115.409 49.4788 115.14 49.4788 114.468 48.856C110.254 44.8301 110.184 44.9024 115.14 41.9942ZM112.501 58.6206C113.436 61.8791 114.243 65.1321 115.049 68.3907C115.382 69.4972 114.581 69.3582 113.979 69.3582H103.331C106.008 65.4101 108.357 61.8735 110.566 58.2702C111.431 57.0302 112.168 57.514 112.501 58.6206ZM114.044 80.7242C113.979 79.1283 114.646 77.7437 114.979 76.3591C115.113 75.7363 115.651 75.525 116.253 75.4583C117.059 75.3915 117.059 76.0811 117.188 76.5648C117.994 78.9226 117.591 79.4786 114.044 80.7242ZM100.848 80.3127C101.987 78.1663 105.535 78.5778 108.013 77.7492C109.889 77.1265 111.765 76.7094 113.909 76.1533C113.442 77.955 113.039 79.4119 112.705 80.9355C112.544 81.6417 112.071 82.2311 111.431 82.5314C109.889 83.3655 108.416 84.2664 106.879 85.1672C104.938 86.346 102.928 87.4526 100.783 88.7038L100.848 80.3127ZM112.033 83.4267C111.098 87.0967 110.227 90.3553 109.357 93.6138C109.088 94.5814 108.486 94.0309 108.083 93.7529C105.938 92.5073 103.863 91.1894 101.385 89.6658C105.003 87.5193 108.282 85.5787 112.033 83.4267ZM112.974 83.9828C113.243 82.8762 116.726 80.1014 117.661 80.1737C117.844 80.2126 118.005 80.3072 118.129 80.4517C119.134 81.6306 119 84.6111 117.93 85.7177C116.054 87.6584 114.178 89.599 112.302 91.4674C111.899 91.8122 111.566 92.3682 110.76 92.1625C111.496 89.321 112.232 86.6185 112.974 83.9828ZM118.424 77.1932C118.36 76.4314 117.419 75.2525 118.623 74.8355C121.698 73.8679 124.767 72.9004 128.105 72.7558C125.159 74.4184 122.278 76.1478 119.36 77.8104C118.693 78.233 118.489 77.677 118.424 77.1932ZM118.462 73.6566C116.785 74.0736 117.258 72.272 116.989 71.4379C116.586 70.259 117.661 70.4703 118.263 70.4703H129.045C129.062 70.576 129.11 70.6705 129.18 70.7484C125.632 71.7159 122.079 72.7558 118.462 73.6566ZM115.984 67.7679C115.178 64.5816 114.511 61.9458 113.705 58.8986C118.263 61.323 118.263 61.323 115.984 67.7679ZM117.457 59.7994C116.145 59.1433 114.893 58.3815 113.705 57.514C113.651 57.4751 113.603 57.4361 113.555 57.3916C112.705 56.6521 112.592 55.3453 113.307 54.4612C113.71 53.8384 114.114 53.2823 114.447 52.6595C115.049 51.3416 115.651 51.6197 116.387 52.5205C117.323 53.6994 118.596 54.6002 119.333 55.7791C119 57.0969 118.731 58.2035 118.398 59.4491C118.263 59.9384 117.93 60.0775 117.457 59.7994ZM119.736 54.1164C119.537 54.0497 119.333 54.0497 119.268 53.9774C115.721 50.6521 115.721 50.6521 118.398 46.6318C119.87 44.4853 121.279 42.3334 122.751 40.1869C122.95 40.2537 123.154 40.3927 123.353 40.465C122.149 44.9691 121.01 49.5455 119.736 54.1164ZM123.891 35.6161C119 38.4576 114.511 41.0878 109.894 43.7903C108.755 39.4919 107.685 35.2658 106.546 30.7616C112.367 32.3575 117.86 33.9534 123.891 35.6161ZM105.804 32.2908C106.61 35.4103 107.411 38.5966 108.217 41.7829C108.115 41.8663 108.002 41.9386 107.884 41.9886C105.739 39.7699 103.595 37.5512 101.455 35.4048C100.988 34.8487 100.719 30.3446 101.122 29.7941C101.224 29.6272 101.402 29.5216 101.59 29.516C103.127 29.1713 105.401 30.6949 105.804 32.2908ZM100.939 25.4289C101.208 21.9646 101.004 18.5003 101.004 15.036H101.38C102.52 19.3344 103.589 23.6273 104.691 27.9257C104.96 28.9655 104.627 29.1045 103.621 28.8932C101.681 28.5485 100.74 27.7867 100.939 25.4289ZM100.649 67.7679V62.3629L100.783 52.8708C100.783 51.692 101.052 51.2749 102.192 51.97C104.471 53.4269 106.814 54.8115 109.222 56.1294C110.158 56.6132 110.158 57.0969 109.625 57.931C107.282 61.3953 104.938 64.8596 102.659 68.3962C102.256 69.0913 101.724 69.5028 100.982 69.2303C100.246 68.9467 100.649 68.2516 100.649 67.7679ZM100.579 100.754V90.4276C103.154 91.9512 105.266 93.3358 107.481 94.6537C108.287 95.1375 108.352 95.5545 107.68 96.2496C105.938 97.9845 104.197 99.7862 102.52 101.588C102.17 102.055 101.611 102.294 101.047 102.211C100.246 101.933 100.579 101.238 100.579 100.754ZM108.147 97.2172C106.943 103.662 107.341 102.9 103.595 102.205C104.869 100.337 106.476 99.0188 108.147 97.2172ZM101.181 124.587C101.047 124.587 100.848 124.52 100.714 124.52C100.714 120.983 100.778 117.38 100.649 113.849C100.585 112.253 100.982 111.425 102.589 111.286C103.337 111.152 104.078 110.969 104.799 110.73C103.525 115.512 102.391 120.083 101.181 124.587ZM103.729 109.901C100.181 110.802 100.783 110.941 100.714 107.543C100.714 104.285 101.251 103.317 103.326 103.523C104.396 103.59 105.938 102.9 106.476 104.285C107.008 105.669 104.933 109.551 103.729 109.901ZM121.074 105.186C116.253 106.503 111.496 107.821 106.406 109.273C106.809 107.61 107.142 106.153 107.475 104.769C107.744 103.662 108.615 103.934 109.351 104.007C113.237 104.285 117.054 104.563 120.94 104.908C121.01 104.98 121.01 105.119 121.074 105.186ZM109.62 102.967C108.55 102.9 108.077 102.622 108.416 101.232C109.754 95.966 109.69 95.966 114.243 98.7352L122.278 103.934C117.86 103.595 113.71 103.245 109.62 102.967ZM124.16 103.595C119.338 100.615 114.914 97.9122 110.695 95.3488C113.71 92.2292 116.591 89.182 119.671 86.1347C121.074 91.7455 122.547 97.4285 124.16 103.595ZM120.069 82.9429C119.989 82.8595 119.924 82.765 119.87 82.6649C118.865 79.2673 118.801 79.2673 121.881 77.5379C124.224 76.2201 126.637 74.9022 128.981 73.5899L129.25 73.7956C126.164 76.8484 123.154 79.8957 120.069 82.9429ZM130.857 69.3638H118.263C117.328 69.3638 116.79 69.297 117.194 68.0459C117.731 66.311 118.129 64.5816 118.532 62.8467C118.731 62.0126 119 61.7401 119.806 62.2239C123.558 64.5093 127.309 66.6613 131.056 68.8744C131.002 69.0412 130.932 69.2081 130.857 69.3638Z" fill="#05BCA9"/>
<path d="M75.9284 20.9208C73.8537 20.8541 72.0423 19.9533 70.0321 19.464C73.5204 16.9061 75.1921 17.3898 75.9284 20.9208ZM111.097 47.256C111.5 47.6007 111.968 47.951 112.371 48.3625C114.65 50.7202 114.65 50.7202 112.57 53.4894C111.833 52.6553 111.898 51.5488 111.565 50.648C111.28 49.6248 111.054 48.585 110.893 47.5284C110.947 47.4283 111.011 47.3338 111.097 47.256ZM35.5031 127.424C35.5676 127.357 35.6375 127.218 35.702 127.146L35.8363 127.285L35.5031 127.424ZM10.5577 37.0689C10.4932 36.8632 10.4932 36.7241 10.4233 36.5128C10.6222 36.5128 10.7566 36.5796 10.9608 36.5796C10.8265 36.7186 10.719 36.9299 10.5577 37.0689Z" fill="#05BCA9"/>
<path d="M57.8979 30.3977V38.929H56.7847V30.3977H57.8979ZM60.6401 30.3977V31.3235H54.0483V30.3977H60.6401ZM65.0581 37.4641V32.5891H66.1479V38.929H65.1108L65.0581 37.4641ZM65.2632 36.1282L65.7144 36.1165C65.7144 36.5383 65.6694 36.929 65.5796 37.2883C65.4937 37.6438 65.353 37.9524 65.1577 38.2141C64.9624 38.4758 64.7065 38.6809 64.3901 38.8293C64.0737 38.9739 63.689 39.0461 63.2358 39.0461C62.9272 39.0461 62.644 39.0012 62.3862 38.9114C62.1323 38.8215 61.9136 38.6829 61.73 38.4954C61.5464 38.3079 61.4038 38.0637 61.3022 37.7629C61.2046 37.4622 61.1558 37.1008 61.1558 36.679V32.5891H62.2397V36.6907C62.2397 36.9758 62.271 37.2122 62.3335 37.3997C62.3999 37.5833 62.4878 37.7297 62.5972 37.8391C62.7104 37.9446 62.8354 38.0188 62.9722 38.0618C63.1128 38.1047 63.2573 38.1262 63.4058 38.1262C63.8667 38.1262 64.2319 38.0383 64.5015 37.8625C64.771 37.6829 64.9644 37.4426 65.0815 37.1418C65.2026 36.8372 65.2632 36.4993 65.2632 36.1282ZM70.4312 39.0461C69.9897 39.0461 69.5894 38.9719 69.23 38.8235C68.8745 38.6711 68.5679 38.4583 68.3101 38.1848C68.0562 37.9114 67.8608 37.5872 67.7241 37.2122C67.5874 36.8372 67.519 36.427 67.519 35.9817V35.7356C67.519 35.22 67.5952 34.761 67.7476 34.3586C67.8999 33.9524 68.1069 33.6086 68.3687 33.3274C68.6304 33.0461 68.9272 32.8333 69.2593 32.6887C69.5913 32.5442 69.9351 32.4719 70.2905 32.4719C70.7437 32.4719 71.1343 32.55 71.4624 32.7063C71.7944 32.8625 72.0659 33.0813 72.2769 33.3625C72.4878 33.6399 72.644 33.968 72.7456 34.3469C72.8472 34.7219 72.8979 35.1321 72.8979 35.5774V36.0637H68.1636V35.179H71.814V35.0969C71.7983 34.8157 71.7397 34.5422 71.6382 34.2766C71.5405 34.011 71.3843 33.7922 71.1694 33.6204C70.9546 33.4485 70.6616 33.3625 70.2905 33.3625C70.0444 33.3625 69.8179 33.4153 69.6108 33.5208C69.4038 33.6223 69.2261 33.7747 69.0776 33.9778C68.9292 34.1809 68.814 34.429 68.7319 34.7219C68.6499 35.0149 68.6089 35.3528 68.6089 35.7356V35.9817C68.6089 36.2825 68.6499 36.5657 68.7319 36.8313C68.8179 37.093 68.9409 37.3235 69.1011 37.5227C69.2651 37.7219 69.4624 37.8782 69.6929 37.9915C69.9272 38.1047 70.1929 38.1614 70.4897 38.1614C70.8726 38.1614 71.1968 38.0833 71.4624 37.927C71.728 37.7708 71.9604 37.5618 72.1597 37.3L72.8159 37.8215C72.6792 38.0286 72.5054 38.2258 72.2944 38.4133C72.0835 38.6008 71.8237 38.7532 71.5151 38.8704C71.2104 38.9875 70.8491 39.0461 70.4312 39.0461ZM55.6597 44.3977V54.511H54.7866V44.3977H55.6597ZM60.0542 66.0383V66.929H54.4702V66.1497L57.2651 63.0383C57.6089 62.6555 57.8745 62.3313 58.062 62.0657C58.2534 61.7961 58.3862 61.5559 58.4604 61.345C58.5386 61.1301 58.5776 60.9114 58.5776 60.6887C58.5776 60.4075 58.519 60.1536 58.4019 59.927C58.2886 59.6965 58.1206 59.5129 57.8979 59.3762C57.6753 59.2395 57.4058 59.1711 57.0894 59.1711C56.7104 59.1711 56.394 59.2454 56.1401 59.3938C55.8901 59.5383 55.7026 59.7415 55.5776 60.0032C55.4526 60.2649 55.3901 60.5657 55.3901 60.9055H54.3062C54.3062 60.425 54.4116 59.9856 54.6226 59.5872C54.8335 59.1887 55.146 58.8723 55.5601 58.6379C55.9741 58.3997 56.4839 58.2805 57.0894 58.2805C57.6284 58.2805 58.0894 58.3762 58.4722 58.5676C58.855 58.7551 59.1479 59.0208 59.3511 59.3645C59.5581 59.7043 59.6616 60.1028 59.6616 60.5598C59.6616 60.8098 59.6187 61.0637 59.5327 61.3215C59.4507 61.5754 59.3354 61.8293 59.187 62.0833C59.0425 62.3372 58.8726 62.5872 58.6772 62.8333C58.4858 63.0793 58.2808 63.3215 58.062 63.5598L55.7769 66.0383H60.0542ZM66.5698 61.9836V63.2844C66.5698 63.9836 66.5073 64.5735 66.3823 65.054C66.2573 65.5344 66.0776 65.9211 65.8433 66.2141C65.6089 66.5071 65.3257 66.72 64.9937 66.8528C64.6655 66.9817 64.2944 67.0461 63.8804 67.0461C63.5522 67.0461 63.2495 67.0051 62.9722 66.9231C62.6948 66.8411 62.4448 66.7102 62.2222 66.5305C62.0034 66.3469 61.8159 66.1086 61.6597 65.8157C61.5034 65.5227 61.3843 65.1672 61.3022 64.7493C61.2202 64.3313 61.1792 63.843 61.1792 63.2844V61.9836C61.1792 61.2844 61.2417 60.6985 61.3667 60.2258C61.4956 59.7532 61.6772 59.3743 61.9116 59.0891C62.146 58.8 62.4272 58.593 62.7554 58.468C63.0874 58.343 63.4585 58.2805 63.8687 58.2805C64.2007 58.2805 64.5054 58.3215 64.7827 58.4036C65.064 58.4817 65.314 58.6086 65.5327 58.7844C65.7515 58.9563 65.937 59.1868 66.0894 59.4758C66.2456 59.761 66.3647 60.1106 66.4468 60.5247C66.5288 60.9387 66.5698 61.425 66.5698 61.9836ZM65.48 63.4602V61.802C65.48 61.4192 65.4565 61.0833 65.4097 60.7942C65.3667 60.5012 65.3022 60.2512 65.2163 60.0442C65.1304 59.8372 65.021 59.6692 64.8882 59.5403C64.7593 59.4114 64.6089 59.3176 64.437 59.259C64.269 59.1965 64.0796 59.1653 63.8687 59.1653C63.6108 59.1653 63.3823 59.2141 63.1831 59.3118C62.9839 59.4055 62.8159 59.5559 62.6792 59.7629C62.5464 59.97 62.4448 60.2415 62.3745 60.5774C62.3042 60.9133 62.269 61.3215 62.269 61.802V63.4602C62.269 63.843 62.2905 64.1809 62.3335 64.4739C62.3804 64.7668 62.4487 65.0208 62.5386 65.2356C62.6284 65.4465 62.7378 65.6204 62.8667 65.7571C62.9956 65.8938 63.144 65.9954 63.312 66.0618C63.4839 66.1243 63.6733 66.1555 63.8804 66.1555C64.146 66.1555 64.3784 66.1047 64.5776 66.0032C64.7769 65.9016 64.9429 65.7434 65.0757 65.5286C65.2124 65.3098 65.314 65.0305 65.3804 64.6907C65.4468 64.3469 65.48 63.9368 65.48 63.4602ZM73.5542 66.0383V66.929H67.9702V66.1497L70.7651 63.0383C71.1089 62.6555 71.3745 62.3313 71.562 62.0657C71.7534 61.7961 71.8862 61.5559 71.9604 61.345C72.0386 61.1301 72.0776 60.9114 72.0776 60.6887C72.0776 60.4075 72.019 60.1536 71.9019 59.927C71.7886 59.6965 71.6206 59.5129 71.3979 59.3762C71.1753 59.2395 70.9058 59.1711 70.5894 59.1711C70.2104 59.1711 69.894 59.2454 69.6401 59.3938C69.3901 59.5383 69.2026 59.7415 69.0776 60.0032C68.9526 60.2649 68.8901 60.5657 68.8901 60.9055H67.8062C67.8062 60.425 67.9116 59.9856 68.1226 59.5872C68.3335 59.1887 68.646 58.8723 69.0601 58.6379C69.4741 58.3997 69.9839 58.2805 70.5894 58.2805C71.1284 58.2805 71.5894 58.3762 71.9722 58.5676C72.355 58.7551 72.6479 59.0208 72.8511 59.3645C73.0581 59.7043 73.1616 60.1028 73.1616 60.5598C73.1616 60.8098 73.1187 61.0637 73.0327 61.3215C72.9507 61.5754 72.8354 61.8293 72.687 62.0833C72.5425 62.3372 72.3726 62.5872 72.1772 62.8333C71.9858 63.0793 71.7808 63.3215 71.562 63.5598L69.2769 66.0383H73.5542ZM59.8198 75.9836V77.2844C59.8198 77.9836 59.7573 78.5735 59.6323 79.054C59.5073 79.5344 59.3276 79.9211 59.0933 80.2141C58.8589 80.5071 58.5757 80.72 58.2437 80.8528C57.9155 80.9817 57.5444 81.0461 57.1304 81.0461C56.8022 81.0461 56.4995 81.0051 56.2222 80.9231C55.9448 80.8411 55.6948 80.7102 55.4722 80.5305C55.2534 80.3469 55.0659 80.1086 54.9097 79.8157C54.7534 79.5227 54.6343 79.1672 54.5522 78.7493C54.4702 78.3313 54.4292 77.843 54.4292 77.2844V75.9836C54.4292 75.2844 54.4917 74.6985 54.6167 74.2258C54.7456 73.7532 54.9272 73.3743 55.1616 73.0891C55.396 72.8 55.6772 72.593 56.0054 72.468C56.3374 72.343 56.7085 72.2805 57.1187 72.2805C57.4507 72.2805 57.7554 72.3215 58.0327 72.4036C58.314 72.4817 58.564 72.6086 58.7827 72.7844C59.0015 72.9563 59.187 73.1868 59.3394 73.4758C59.4956 73.761 59.6147 74.1106 59.6968 74.5247C59.7788 74.9387 59.8198 75.425 59.8198 75.9836ZM58.73 77.4602V75.802C58.73 75.4192 58.7065 75.0833 58.6597 74.7942C58.6167 74.5012 58.5522 74.2512 58.4663 74.0442C58.3804 73.8372 58.271 73.6692 58.1382 73.5403C58.0093 73.4114 57.8589 73.3176 57.687 73.259C57.519 73.1965 57.3296 73.1653 57.1187 73.1653C56.8608 73.1653 56.6323 73.2141 56.4331 73.3118C56.2339 73.4055 56.0659 73.5559 55.9292 73.7629C55.7964 73.97 55.6948 74.2415 55.6245 74.5774C55.5542 74.9133 55.519 75.3215 55.519 75.802V77.4602C55.519 77.843 55.5405 78.1809 55.5835 78.4739C55.6304 78.7668 55.6987 79.0208 55.7886 79.2356C55.8784 79.4465 55.9878 79.6204 56.1167 79.7571C56.2456 79.8938 56.394 79.9954 56.562 80.0618C56.7339 80.1243 56.9233 80.1555 57.1304 80.1555C57.396 80.1555 57.6284 80.1047 57.8276 80.0032C58.0269 79.9016 58.1929 79.7434 58.3257 79.5286C58.4624 79.3098 58.564 79.0305 58.6304 78.6907C58.6968 78.3469 58.73 77.9368 58.73 77.4602ZM63.5874 76.8567V77.7473H60.728V76.8567H63.5874ZM68.0933 72.3508V80.929H67.0093V73.7043L64.8237 74.5012V73.5227L67.9233 72.3508H68.0933ZM76.8706 80.0383V80.929H71.2866V80.1497L74.0815 77.0383C74.4253 76.6555 74.6909 76.3313 74.8784 76.0657C75.0698 75.7961 75.2026 75.5559 75.2769 75.345C75.355 75.1301 75.394 74.9114 75.394 74.6887C75.394 74.4075 75.3354 74.1536 75.2183 73.927C75.105 73.6965 74.937 73.5129 74.7144 73.3762C74.4917 73.2395 74.2222 73.1711 73.9058 73.1711C73.5269 73.1711 73.2104 73.2454 72.9565 73.3938C72.7065 73.5383 72.519 73.7415 72.394 74.0032C72.269 74.2649 72.2065 74.5657 72.2065 74.9055H71.1226C71.1226 74.425 71.228 73.9856 71.439 73.5872C71.6499 73.1887 71.9624 72.8723 72.3765 72.6379C72.7905 72.3997 73.3003 72.2805 73.9058 72.2805C74.4448 72.2805 74.9058 72.3762 75.2886 72.5676C75.6714 72.7551 75.9644 73.0208 76.1675 73.3645C76.3745 73.7043 76.478 74.1028 76.478 74.5598C76.478 74.8098 76.4351 75.0637 76.3491 75.3215C76.2671 75.5754 76.1519 75.8293 76.0034 76.0833C75.8589 76.3372 75.689 76.5872 75.4937 76.8333C75.3022 77.0793 75.0972 77.3215 74.8784 77.5598L72.5933 80.0383H76.8706ZM56.8374 90.8567V91.7473H53.978V90.8567H56.8374ZM63.3706 94.0383V94.929H57.7866V94.1497L60.5815 91.0383C60.9253 90.6555 61.1909 90.3313 61.3784 90.0657C61.5698 89.7961 61.7026 89.5559 61.7769 89.345C61.855 89.1301 61.894 88.9114 61.894 88.6887C61.894 88.4075 61.8354 88.1536 61.7183 87.927C61.605 87.6965 61.437 87.5129 61.2144 87.3762C60.9917 87.2395 60.7222 87.1711 60.4058 87.1711C60.0269 87.1711 59.7104 87.2454 59.4565 87.3938C59.2065 87.5383 59.019 87.7415 58.894 88.0032C58.769 88.2649 58.7065 88.5657 58.7065 88.9055H57.6226C57.6226 88.425 57.728 87.9856 57.939 87.5872C58.1499 87.1887 58.4624 86.8723 58.8765 86.6379C59.2905 86.3997 59.8003 86.2805 60.4058 86.2805C60.9448 86.2805 61.4058 86.3762 61.7886 86.5676C62.1714 86.7551 62.4644 87.0208 62.6675 87.3645C62.8745 87.7043 62.978 88.1028 62.978 88.5598C62.978 88.8098 62.9351 89.0637 62.8491 89.3215C62.7671 89.5754 62.6519 89.8293 62.5034 90.0833C62.3589 90.3372 62.189 90.5872 61.9937 90.8333C61.8022 91.0793 61.5972 91.3215 61.3784 91.5598L59.0933 94.0383H63.3706ZM65.6089 94.0208H65.7202C66.3452 94.0208 66.853 93.9329 67.2437 93.7571C67.6343 93.5813 67.9351 93.345 68.146 93.0481C68.3569 92.7512 68.5015 92.4172 68.5796 92.0461C68.6577 91.6711 68.6968 91.2864 68.6968 90.8918V89.5852C68.6968 89.1985 68.6519 88.8547 68.562 88.554C68.4761 88.2532 68.355 88.0012 68.1987 87.7981C68.0464 87.595 67.8726 87.4407 67.6772 87.3352C67.4819 87.2297 67.2749 87.177 67.0562 87.177C66.8062 87.177 66.5815 87.2278 66.3823 87.3293C66.187 87.427 66.021 87.5657 65.8843 87.7454C65.7515 87.925 65.6499 88.136 65.5796 88.3782C65.5093 88.6204 65.4741 88.884 65.4741 89.1692C65.4741 89.4231 65.5054 89.6692 65.5679 89.9075C65.6304 90.1458 65.7261 90.3606 65.855 90.552C65.9839 90.7434 66.144 90.8958 66.3354 91.009C66.5308 91.1184 66.7593 91.1731 67.021 91.1731C67.2632 91.1731 67.4897 91.1262 67.7007 91.0325C67.9155 90.9348 68.105 90.804 68.269 90.6399C68.437 90.4719 68.5698 90.2825 68.6675 90.0715C68.769 89.8606 68.8276 89.6399 68.8433 89.4094H69.3589C69.3589 89.7336 69.2944 90.054 69.1655 90.3704C69.0405 90.6829 68.8647 90.968 68.6382 91.2258C68.4116 91.4836 68.146 91.6907 67.8413 91.8469C67.5366 91.9993 67.2046 92.0754 66.8452 92.0754C66.4233 92.0754 66.0581 91.9934 65.7495 91.8293C65.4409 91.6653 65.187 91.4465 64.9878 91.1731C64.7925 90.8997 64.646 90.595 64.5483 90.259C64.4546 89.9192 64.4077 89.5754 64.4077 89.2278C64.4077 88.8215 64.4644 88.4407 64.5776 88.0852C64.6909 87.7297 64.8589 87.4172 65.0815 87.1477C65.3042 86.8743 65.5796 86.6614 65.9077 86.509C66.2397 86.3567 66.6226 86.2805 67.0562 86.2805C67.5444 86.2805 67.9604 86.3782 68.3042 86.5735C68.6479 86.7688 68.9272 87.0305 69.1421 87.3586C69.3608 87.6868 69.521 88.0559 69.6226 88.4661C69.7241 88.8762 69.7749 89.2981 69.7749 89.7317V90.1243C69.7749 90.5657 69.7456 91.0149 69.687 91.4719C69.6323 91.925 69.5249 92.3586 69.3647 92.7727C69.2085 93.1868 68.98 93.5579 68.6792 93.886C68.3784 94.2102 67.9858 94.468 67.5015 94.6594C67.021 94.8469 66.4272 94.9407 65.7202 94.9407H65.6089V94.0208ZM71.3511 94.3547C71.3511 94.1711 71.4077 94.0168 71.521 93.8918C71.6382 93.7629 71.8062 93.6985 72.0249 93.6985C72.2437 93.6985 72.4097 93.7629 72.5229 93.8918C72.6401 94.0168 72.6987 94.1711 72.6987 94.3547C72.6987 94.5344 72.6401 94.6868 72.5229 94.8118C72.4097 94.9368 72.2437 94.9993 72.0249 94.9993C71.8062 94.9993 71.6382 94.9368 71.521 94.8118C71.4077 94.6868 71.3511 94.5344 71.3511 94.3547ZM71.3569 89.1809C71.3569 88.9973 71.4136 88.843 71.5269 88.718C71.644 88.5891 71.812 88.5247 72.0308 88.5247C72.2495 88.5247 72.4155 88.5891 72.5288 88.718C72.646 88.843 72.7046 88.9973 72.7046 89.1809C72.7046 89.3606 72.646 89.5129 72.5288 89.6379C72.4155 89.7629 72.2495 89.8254 72.0308 89.8254C71.812 89.8254 71.644 89.7629 71.5269 89.6379C71.4136 89.5129 71.3569 89.3606 71.3569 89.1809ZM58.0269 100.351V108.929H56.9429V101.704L54.7573 102.501V101.523L57.8569 100.351H58.0269ZM65.3745 100.386H65.4683V101.306H65.3745C64.8003 101.306 64.3198 101.4 63.9331 101.587C63.5464 101.771 63.2397 102.019 63.0132 102.331C62.7866 102.64 62.6226 102.988 62.521 103.374C62.4233 103.761 62.3745 104.154 62.3745 104.552V105.806C62.3745 106.185 62.4194 106.521 62.5093 106.814C62.5991 107.103 62.7222 107.347 62.8784 107.546C63.0347 107.745 63.2104 107.896 63.4058 107.997C63.605 108.099 63.812 108.15 64.0269 108.15C64.2769 108.15 64.4995 108.103 64.6948 108.009C64.8901 107.911 65.0542 107.777 65.187 107.605C65.3237 107.429 65.4272 107.222 65.4976 106.984C65.5679 106.745 65.603 106.484 65.603 106.198C65.603 105.945 65.5718 105.7 65.5093 105.466C65.4468 105.228 65.3511 105.017 65.2222 104.833C65.0933 104.646 64.9312 104.499 64.7358 104.394C64.5444 104.284 64.3159 104.23 64.0503 104.23C63.7495 104.23 63.4683 104.304 63.2065 104.452C62.9487 104.597 62.7358 104.788 62.5679 105.027C62.4038 105.261 62.3101 105.517 62.2866 105.794L61.7124 105.788C61.7671 105.351 61.8687 104.978 62.0171 104.669C62.1694 104.357 62.3569 104.103 62.5796 103.907C62.8062 103.708 63.0581 103.564 63.3354 103.474C63.6167 103.38 63.9136 103.333 64.2261 103.333C64.6519 103.333 65.019 103.413 65.3276 103.573C65.6362 103.734 65.8901 103.948 66.0894 104.218C66.2886 104.484 66.4351 104.784 66.5288 105.12C66.6265 105.452 66.6753 105.794 66.6753 106.146C66.6753 106.548 66.6187 106.925 66.5054 107.277C66.3921 107.628 66.2222 107.937 65.9956 108.202C65.7729 108.468 65.4976 108.675 65.1694 108.823C64.8413 108.972 64.4604 109.046 64.0269 109.046C63.5659 109.046 63.1636 108.952 62.8198 108.765C62.4761 108.573 62.1909 108.32 61.9644 108.003C61.7378 107.687 61.5679 107.335 61.4546 106.948C61.3413 106.562 61.2847 106.169 61.2847 105.771V105.261C61.2847 104.659 61.3452 104.07 61.4663 103.491C61.5874 102.913 61.7964 102.39 62.0933 101.921C62.394 101.452 62.8101 101.079 63.3413 100.802C63.8726 100.525 64.5503 100.386 65.3745 100.386ZM72.1362 100.398V110.511H71.2632V100.398H72.1362ZM60.1655 122.009V122.929H55.6479V122.009H60.1655ZM55.8765 114.398V122.929H54.7456V114.398H55.8765ZM59.5679 118.066V118.986H55.6479V118.066H59.5679ZM60.1069 114.398V115.323H55.6479V114.398H60.1069ZM61.355 122.355C61.355 122.171 61.4116 122.017 61.5249 121.892C61.6421 121.763 61.8101 121.698 62.0288 121.698C62.2476 121.698 62.4136 121.763 62.5269 121.892C62.644 122.017 62.7026 122.171 62.7026 122.355C62.7026 122.534 62.644 122.687 62.5269 122.812C62.4136 122.937 62.2476 122.999 62.0288 122.999C61.8101 122.999 61.6421 122.937 61.5249 122.812C61.4116 122.687 61.355 122.534 61.355 122.355ZM61.3608 117.181C61.3608 116.997 61.4175 116.843 61.5308 116.718C61.6479 116.589 61.8159 116.525 62.0347 116.525C62.2534 116.525 62.4194 116.589 62.5327 116.718C62.6499 116.843 62.7085 116.997 62.7085 117.181C62.7085 117.361 62.6499 117.513 62.5327 117.638C62.4194 117.763 62.2534 117.825 62.0347 117.825C61.8159 117.825 61.6479 117.763 61.5308 117.638C61.4175 117.513 61.3608 117.361 61.3608 117.181ZM58.0269 128.351V136.929H56.9429V129.704L54.7573 130.501V129.523L57.8569 128.351H58.0269ZM62.7964 132.13H63.5698C63.9487 132.13 64.2612 132.068 64.5073 131.943C64.7573 131.814 64.9429 131.64 65.064 131.421C65.189 131.198 65.2515 130.948 65.2515 130.671C65.2515 130.343 65.1968 130.068 65.0874 129.845C64.978 129.622 64.814 129.454 64.5952 129.341C64.3765 129.228 64.0991 129.171 63.7632 129.171C63.4585 129.171 63.189 129.232 62.9546 129.353C62.7241 129.47 62.5425 129.638 62.4097 129.857C62.2808 130.075 62.2163 130.333 62.2163 130.63H61.1323C61.1323 130.197 61.2417 129.802 61.4604 129.447C61.6792 129.091 61.9858 128.808 62.3804 128.597C62.7788 128.386 63.2397 128.281 63.7632 128.281C64.2788 128.281 64.73 128.372 65.1167 128.556C65.5034 128.736 65.8042 129.005 66.019 129.365C66.2339 129.72 66.3413 130.163 66.3413 130.695C66.3413 130.909 66.2905 131.14 66.189 131.386C66.0913 131.628 65.937 131.855 65.7261 132.066C65.519 132.277 65.2495 132.45 64.9175 132.587C64.5854 132.72 64.187 132.786 63.7222 132.786H62.7964V132.13ZM62.7964 133.021V132.37H63.7222C64.2651 132.37 64.7144 132.435 65.0698 132.564C65.4253 132.693 65.7046 132.865 65.9077 133.079C66.1147 133.294 66.2593 133.531 66.3413 133.788C66.4272 134.042 66.4702 134.296 66.4702 134.55C66.4702 134.948 66.4019 135.302 66.2651 135.611C66.1323 135.919 65.9429 136.181 65.6968 136.396C65.4546 136.611 65.1694 136.773 64.8413 136.882C64.5132 136.991 64.1558 137.046 63.769 137.046C63.3979 137.046 63.0483 136.993 62.7202 136.888C62.396 136.782 62.1089 136.63 61.8589 136.431C61.6089 136.228 61.4136 135.98 61.2729 135.687C61.1323 135.39 61.062 135.052 61.062 134.673H62.146C62.146 134.97 62.2104 135.23 62.3394 135.452C62.4722 135.675 62.6597 135.849 62.9019 135.974C63.1479 136.095 63.437 136.156 63.769 136.156C64.1011 136.156 64.3862 136.099 64.6245 135.986C64.8667 135.868 65.0522 135.693 65.1812 135.458C65.314 135.224 65.3804 134.929 65.3804 134.573C65.3804 134.218 65.3062 133.927 65.1577 133.7C65.0093 133.47 64.7983 133.3 64.5249 133.191C64.2554 133.077 63.937 133.021 63.5698 133.021H62.7964ZM73.3433 134.62C73.3433 135.14 73.2222 135.581 72.98 135.945C72.7417 136.304 72.4175 136.577 72.0073 136.765C71.6011 136.952 71.1421 137.046 70.6304 137.046C70.1187 137.046 69.6577 136.952 69.2476 136.765C68.8374 136.577 68.5132 136.304 68.2749 135.945C68.0366 135.581 67.9175 135.14 67.9175 134.62C67.9175 134.281 67.9819 133.97 68.1108 133.689C68.2437 133.404 68.4292 133.156 68.6675 132.945C68.9097 132.734 69.1948 132.572 69.5229 132.458C69.855 132.341 70.2202 132.282 70.6187 132.282C71.1421 132.282 71.6089 132.384 72.019 132.587C72.4292 132.786 72.7515 133.062 72.9858 133.413C73.2241 133.765 73.3433 134.167 73.3433 134.62ZM72.2534 134.597C72.2534 134.281 72.1851 134.001 72.0483 133.759C71.9116 133.513 71.7202 133.322 71.4741 133.185C71.228 133.048 70.9429 132.98 70.6187 132.98C70.2866 132.98 69.9995 133.048 69.7573 133.185C69.519 133.322 69.3335 133.513 69.2007 133.759C69.0679 134.001 69.0015 134.281 69.0015 134.597C69.0015 134.925 69.0659 135.206 69.1948 135.441C69.3276 135.671 69.5151 135.849 69.7573 135.974C70.0034 136.095 70.2944 136.156 70.6304 136.156C70.9663 136.156 71.2554 136.095 71.4976 135.974C71.7397 135.849 71.9253 135.671 72.0542 135.441C72.187 135.206 72.2534 134.925 72.2534 134.597ZM73.144 130.618C73.144 131.032 73.0347 131.406 72.8159 131.738C72.5972 132.07 72.2983 132.331 71.9194 132.523C71.5405 132.714 71.1108 132.81 70.6304 132.81C70.1421 132.81 69.7065 132.714 69.3237 132.523C68.9448 132.331 68.6479 132.07 68.4331 131.738C68.2183 131.406 68.1108 131.032 68.1108 130.618C68.1108 130.122 68.2183 129.7 68.4331 129.353C68.6519 129.005 68.9507 128.74 69.3296 128.556C69.7085 128.372 70.1401 128.281 70.6245 128.281C71.1128 128.281 71.5464 128.372 71.9253 128.556C72.3042 128.74 72.6011 129.005 72.8159 129.353C73.0347 129.7 73.144 130.122 73.144 130.618ZM72.0601 130.636C72.0601 130.351 71.9995 130.099 71.8784 129.88C71.7573 129.661 71.5894 129.49 71.3745 129.365C71.1597 129.236 70.9097 129.171 70.6245 129.171C70.3394 129.171 70.0894 129.232 69.8745 129.353C69.6636 129.47 69.4976 129.638 69.3765 129.857C69.2593 130.075 69.2007 130.335 69.2007 130.636C69.2007 130.929 69.2593 131.185 69.3765 131.404C69.4976 131.622 69.6655 131.792 69.8804 131.913C70.0952 132.034 70.3452 132.095 70.6304 132.095C70.9155 132.095 71.1636 132.034 71.3745 131.913C71.5894 131.792 71.7573 131.622 71.8784 131.404C71.9995 131.185 72.0601 130.929 72.0601 130.636ZM55.6597 142.398V152.511H54.7866V142.398H55.6597ZM65.1987 148.773C65.1987 148.573 65.1675 148.398 65.105 148.245C65.0464 148.089 64.9409 147.948 64.7886 147.823C64.6401 147.698 64.4331 147.579 64.1675 147.466C63.9058 147.353 63.5737 147.238 63.1714 147.12C62.7495 146.995 62.3687 146.857 62.0288 146.704C61.689 146.548 61.3979 146.37 61.1558 146.171C60.9136 145.972 60.728 145.743 60.5991 145.486C60.4702 145.228 60.4058 144.933 60.4058 144.601C60.4058 144.269 60.4741 143.962 60.6108 143.681C60.7476 143.4 60.9429 143.156 61.1968 142.948C61.4546 142.738 61.7612 142.573 62.1167 142.456C62.4722 142.339 62.8687 142.281 63.3062 142.281C63.9468 142.281 64.4897 142.404 64.9351 142.65C65.3843 142.892 65.7261 143.21 65.9604 143.605C66.1948 143.995 66.312 144.413 66.312 144.859H65.187C65.187 144.538 65.1187 144.255 64.9819 144.009C64.8452 143.759 64.6382 143.564 64.3608 143.423C64.0835 143.279 63.7319 143.206 63.3062 143.206C62.9038 143.206 62.5718 143.267 62.3101 143.388C62.0483 143.509 61.853 143.673 61.7241 143.88C61.5991 144.087 61.5366 144.323 61.5366 144.589C61.5366 144.769 61.5737 144.933 61.6479 145.081C61.7261 145.226 61.8452 145.361 62.0054 145.486C62.1694 145.611 62.3765 145.726 62.6265 145.831C62.8804 145.937 63.1831 146.038 63.5347 146.136C64.019 146.273 64.437 146.425 64.7886 146.593C65.1401 146.761 65.4292 146.95 65.6558 147.161C65.8862 147.368 66.0562 147.605 66.1655 147.87C66.2788 148.132 66.3354 148.429 66.3354 148.761C66.3354 149.109 66.2651 149.423 66.1245 149.704C65.9839 149.986 65.7827 150.226 65.521 150.425C65.2593 150.624 64.9448 150.779 64.5776 150.888C64.2144 150.993 63.8081 151.046 63.3589 151.046C62.9644 151.046 62.5757 150.991 62.1929 150.882C61.814 150.773 61.4683 150.609 61.1558 150.39C60.8472 150.171 60.5991 149.902 60.4116 149.581C60.228 149.257 60.1362 148.882 60.1362 148.456H61.2612C61.2612 148.749 61.3179 149.001 61.4312 149.212C61.5444 149.419 61.6987 149.591 61.894 149.728C62.0933 149.865 62.3179 149.966 62.5679 150.032C62.8218 150.095 63.0854 150.126 63.3589 150.126C63.7534 150.126 64.0874 150.072 64.3608 149.962C64.6343 149.853 64.8413 149.697 64.9819 149.493C65.1265 149.29 65.1987 149.05 65.1987 148.773ZM67.5659 150.355C67.5659 150.171 67.6226 150.017 67.7358 149.892C67.853 149.763 68.021 149.698 68.2397 149.698C68.4585 149.698 68.6245 149.763 68.7378 149.892C68.855 150.017 68.9136 150.171 68.9136 150.355C68.9136 150.534 68.855 150.687 68.7378 150.812C68.6245 150.937 68.4585 150.999 68.2397 150.999C68.021 150.999 67.853 150.937 67.7358 150.812C67.6226 150.687 67.5659 150.534 67.5659 150.355ZM67.5718 145.181C67.5718 144.997 67.6284 144.843 67.7417 144.718C67.8589 144.589 68.0269 144.525 68.2456 144.525C68.4644 144.525 68.6304 144.589 68.7437 144.718C68.8608 144.843 68.9194 144.997 68.9194 145.181C68.9194 145.361 68.8608 145.513 68.7437 145.638C68.6304 145.763 68.4644 145.825 68.2456 145.825C68.0269 145.825 67.8589 145.763 67.7417 145.638C67.6284 145.513 67.5718 145.361 67.5718 145.181ZM60.0542 164.038V164.929H54.4702V164.15L57.2651 161.038C57.6089 160.656 57.8745 160.331 58.062 160.066C58.2534 159.796 58.3862 159.556 58.4604 159.345C58.5386 159.13 58.5776 158.911 58.5776 158.689C58.5776 158.407 58.519 158.154 58.4019 157.927C58.2886 157.697 58.1206 157.513 57.8979 157.376C57.6753 157.24 57.4058 157.171 57.0894 157.171C56.7104 157.171 56.394 157.245 56.1401 157.394C55.8901 157.538 55.7026 157.741 55.5776 158.003C55.4526 158.265 55.3901 158.566 55.3901 158.906H54.3062C54.3062 158.425 54.4116 157.986 54.6226 157.587C54.8335 157.189 55.146 156.872 55.5601 156.638C55.9741 156.4 56.4839 156.281 57.0894 156.281C57.6284 156.281 58.0894 156.376 58.4722 156.568C58.855 156.755 59.1479 157.021 59.3511 157.365C59.5581 157.704 59.6616 158.103 59.6616 158.56C59.6616 158.81 59.6187 159.064 59.5327 159.322C59.4507 159.575 59.3354 159.829 59.187 160.083C59.0425 160.337 58.8726 160.587 58.6772 160.833C58.4858 161.079 58.2808 161.322 58.062 161.56L55.7769 164.038H60.0542ZM66.98 162.058V162.948H60.8159V162.31L64.6362 156.398H65.521L64.5718 158.109L62.0464 162.058H66.98ZM65.7905 156.398V164.929H64.7065V156.398H65.7905ZM72.1362 156.398V166.511H71.2632V156.398H72.1362ZM57.8921 175.583H55.6128V174.663H57.8921C58.3335 174.663 58.6909 174.593 58.9644 174.452C59.2378 174.312 59.437 174.116 59.562 173.866C59.6909 173.616 59.7554 173.331 59.7554 173.011C59.7554 172.718 59.6909 172.443 59.562 172.185C59.437 171.927 59.2378 171.72 58.9644 171.564C58.6909 171.404 58.3335 171.323 57.8921 171.323H55.8765V178.929H54.7456V170.398H57.8921C58.5366 170.398 59.0815 170.509 59.5269 170.732C59.9722 170.954 60.3101 171.263 60.5405 171.657C60.771 172.048 60.8862 172.495 60.8862 172.999C60.8862 173.546 60.771 174.013 60.5405 174.4C60.3101 174.786 59.9722 175.081 59.5269 175.284C59.0815 175.484 58.5366 175.583 57.8921 175.583ZM62.105 178.355C62.105 178.171 62.1616 178.017 62.2749 177.892C62.3921 177.763 62.5601 177.698 62.7788 177.698C62.9976 177.698 63.1636 177.763 63.2769 177.892C63.394 178.017 63.4526 178.171 63.4526 178.355C63.4526 178.534 63.394 178.687 63.2769 178.812C63.1636 178.937 62.9976 178.999 62.7788 178.999C62.5601 178.999 62.3921 178.937 62.2749 178.812C62.1616 178.687 62.105 178.534 62.105 178.355ZM62.1108 173.181C62.1108 172.997 62.1675 172.843 62.2808 172.718C62.3979 172.589 62.5659 172.525 62.7847 172.525C63.0034 172.525 63.1694 172.589 63.2827 172.718C63.3999 172.843 63.4585 172.997 63.4585 173.181C63.4585 173.361 63.3999 173.513 63.2827 173.638C63.1694 173.763 63.0034 173.825 62.7847 173.825C62.5659 173.825 62.3979 173.763 62.2808 173.638C62.1675 173.513 62.1108 173.361 62.1108 173.181ZM55.8354 188.868L54.9683 188.646L55.396 184.398H59.7729V185.4H56.3159L56.0581 187.72C56.2144 187.63 56.4116 187.546 56.6499 187.468C56.8921 187.39 57.1694 187.351 57.4819 187.351C57.8765 187.351 58.23 187.419 58.5425 187.556C58.855 187.689 59.1206 187.88 59.3394 188.13C59.562 188.38 59.7319 188.681 59.8491 189.032C59.9663 189.384 60.0249 189.777 60.0249 190.21C60.0249 190.62 59.9683 190.997 59.855 191.341C59.7456 191.685 59.5796 191.986 59.3569 192.243C59.1343 192.497 58.853 192.695 58.5132 192.835C58.1772 192.976 57.7808 193.046 57.3237 193.046C56.98 193.046 56.6538 192.999 56.3452 192.906C56.0405 192.808 55.7671 192.661 55.5249 192.466C55.2866 192.267 55.0913 192.021 54.939 191.728C54.7905 191.431 54.6968 191.083 54.6577 190.685H55.689C55.7358 191.005 55.8296 191.275 55.9702 191.493C56.1108 191.712 56.2944 191.878 56.521 191.991C56.7515 192.101 57.019 192.156 57.3237 192.156C57.5815 192.156 57.8101 192.111 58.0093 192.021C58.2085 191.931 58.3765 191.802 58.5132 191.634C58.6499 191.466 58.7534 191.263 58.8237 191.025C58.8979 190.786 58.9351 190.519 58.9351 190.222C58.9351 189.952 58.8979 189.702 58.8237 189.472C58.7495 189.241 58.6382 189.04 58.4897 188.868C58.3452 188.697 58.1675 188.564 57.9565 188.47C57.7456 188.372 57.5034 188.323 57.23 188.323C56.8667 188.323 56.5913 188.372 56.4038 188.47C56.2202 188.568 56.0308 188.7 55.8354 188.868ZM66.8042 192.038V192.929H61.2202V192.15L64.0151 189.038C64.3589 188.656 64.6245 188.331 64.812 188.066C65.0034 187.796 65.1362 187.556 65.2104 187.345C65.2886 187.13 65.3276 186.911 65.3276 186.689C65.3276 186.407 65.269 186.154 65.1519 185.927C65.0386 185.697 64.8706 185.513 64.6479 185.376C64.4253 185.24 64.1558 185.171 63.8394 185.171C63.4604 185.171 63.144 185.245 62.8901 185.394C62.6401 185.538 62.4526 185.741 62.3276 186.003C62.2026 186.265 62.1401 186.566 62.1401 186.906H61.0562C61.0562 186.425 61.1616 185.986 61.3726 185.587C61.5835 185.189 61.896 184.872 62.3101 184.638C62.7241 184.4 63.2339 184.281 63.8394 184.281C64.3784 184.281 64.8394 184.376 65.2222 184.568C65.605 184.755 65.8979 185.021 66.1011 185.365C66.3081 185.704 66.4116 186.103 66.4116 186.56C66.4116 186.81 66.3687 187.064 66.2827 187.322C66.2007 187.575 66.0854 187.829 65.937 188.083C65.7925 188.337 65.6226 188.587 65.4272 188.833C65.2358 189.079 65.0308 189.322 64.812 189.56L62.5269 192.038H66.8042ZM71.3979 184.398V192.929H70.2847V184.398H71.3979ZM74.1401 184.398V185.323H67.5483V184.398H74.1401ZM58.4604 205.464V200.589H59.5503V206.929H58.5132L58.4604 205.464ZM58.6655 204.128L59.1167 204.116C59.1167 204.538 59.0718 204.929 58.9819 205.288C58.896 205.644 58.7554 205.952 58.5601 206.214C58.3647 206.476 58.1089 206.681 57.7925 206.829C57.4761 206.974 57.0913 207.046 56.6382 207.046C56.3296 207.046 56.0464 207.001 55.7886 206.911C55.5347 206.822 55.3159 206.683 55.1323 206.495C54.9487 206.308 54.8062 206.064 54.7046 205.763C54.6069 205.462 54.5581 205.101 54.5581 204.679V200.589H55.6421V204.691C55.6421 204.976 55.6733 205.212 55.7358 205.4C55.8022 205.583 55.8901 205.73 55.9995 205.839C56.1128 205.945 56.2378 206.019 56.3745 206.062C56.5151 206.105 56.6597 206.126 56.8081 206.126C57.269 206.126 57.6343 206.038 57.9038 205.863C58.1733 205.683 58.3667 205.443 58.4839 205.142C58.605 204.837 58.6655 204.499 58.6655 204.128ZM63.8335 207.046C63.3921 207.046 62.9917 206.972 62.6323 206.823C62.2769 206.671 61.9702 206.458 61.7124 206.185C61.4585 205.911 61.2632 205.587 61.1265 205.212C60.9897 204.837 60.9214 204.427 60.9214 203.982V203.736C60.9214 203.22 60.9976 202.761 61.1499 202.359C61.3022 201.952 61.5093 201.609 61.771 201.327C62.0327 201.046 62.3296 200.833 62.6616 200.689C62.9937 200.544 63.3374 200.472 63.6929 200.472C64.146 200.472 64.5366 200.55 64.8647 200.706C65.1968 200.863 65.4683 201.081 65.6792 201.363C65.8901 201.64 66.0464 201.968 66.1479 202.347C66.2495 202.722 66.3003 203.132 66.3003 203.577V204.064H61.5659V203.179H65.2163V203.097C65.2007 202.816 65.1421 202.542 65.0405 202.277C64.9429 202.011 64.7866 201.792 64.5718 201.62C64.3569 201.448 64.064 201.363 63.6929 201.363C63.4468 201.363 63.2202 201.415 63.0132 201.521C62.8062 201.622 62.6284 201.775 62.48 201.978C62.3315 202.181 62.2163 202.429 62.1343 202.722C62.0522 203.015 62.0112 203.353 62.0112 203.736V203.982C62.0112 204.282 62.0522 204.566 62.1343 204.831C62.2202 205.093 62.3433 205.323 62.5034 205.523C62.6675 205.722 62.8647 205.878 63.0952 205.991C63.3296 206.105 63.5952 206.161 63.8921 206.161C64.2749 206.161 64.5991 206.083 64.8647 205.927C65.1304 205.771 65.3628 205.562 65.562 205.3L66.2183 205.822C66.0815 206.029 65.9077 206.226 65.6968 206.413C65.4858 206.601 65.2261 206.753 64.9175 206.87C64.6128 206.988 64.2515 207.046 63.8335 207.046ZM71.6206 198.398V208.511H70.7476V198.398H71.6206ZM60.0542 220.038V220.929H54.4702V220.15L57.2651 217.038C57.6089 216.656 57.8745 216.331 58.062 216.066C58.2534 215.796 58.3862 215.556 58.4604 215.345C58.5386 215.13 58.5776 214.911 58.5776 214.689C58.5776 214.407 58.519 214.154 58.4019 213.927C58.2886 213.697 58.1206 213.513 57.8979 213.376C57.6753 213.24 57.4058 213.171 57.0894 213.171C56.7104 213.171 56.394 213.245 56.1401 213.394C55.8901 213.538 55.7026 213.741 55.5776 214.003C55.4526 214.265 55.3901 214.566 55.3901 214.906H54.3062C54.3062 214.425 54.4116 213.986 54.6226 213.587C54.8335 213.189 55.146 212.872 55.5601 212.638C55.9741 212.4 56.4839 212.281 57.0894 212.281C57.6284 212.281 58.0894 212.376 58.4722 212.568C58.855 212.755 59.1479 213.021 59.3511 213.365C59.5581 213.704 59.6616 214.103 59.6616 214.56C59.6616 214.81 59.6187 215.064 59.5327 215.322C59.4507 215.575 59.3354 215.829 59.187 216.083C59.0425 216.337 58.8726 216.587 58.6772 216.833C58.4858 217.079 58.2808 217.322 58.062 217.56L55.7769 220.038H60.0542ZM66.5698 215.984V217.284C66.5698 217.984 66.5073 218.573 66.3823 219.054C66.2573 219.534 66.0776 219.921 65.8433 220.214C65.6089 220.507 65.3257 220.72 64.9937 220.853C64.6655 220.982 64.2944 221.046 63.8804 221.046C63.5522 221.046 63.2495 221.005 62.9722 220.923C62.6948 220.841 62.4448 220.71 62.2222 220.531C62.0034 220.347 61.8159 220.109 61.6597 219.816C61.5034 219.523 61.3843 219.167 61.3022 218.749C61.2202 218.331 61.1792 217.843 61.1792 217.284V215.984C61.1792 215.284 61.2417 214.698 61.3667 214.226C61.4956 213.753 61.6772 213.374 61.9116 213.089C62.146 212.8 62.4272 212.593 62.7554 212.468C63.0874 212.343 63.4585 212.281 63.8687 212.281C64.2007 212.281 64.5054 212.322 64.7827 212.404C65.064 212.482 65.314 212.609 65.5327 212.784C65.7515 212.956 65.937 213.187 66.0894 213.476C66.2456 213.761 66.3647 214.111 66.4468 214.525C66.5288 214.939 66.5698 215.425 66.5698 215.984ZM65.48 217.46V215.802C65.48 215.419 65.4565 215.083 65.4097 214.794C65.3667 214.501 65.3022 214.251 65.2163 214.044C65.1304 213.837 65.021 213.669 64.8882 213.54C64.7593 213.411 64.6089 213.318 64.437 213.259C64.269 213.197 64.0796 213.165 63.8687 213.165C63.6108 213.165 63.3823 213.214 63.1831 213.312C62.9839 213.406 62.8159 213.556 62.6792 213.763C62.5464 213.97 62.4448 214.241 62.3745 214.577C62.3042 214.913 62.269 215.322 62.269 215.802V217.46C62.269 217.843 62.2905 218.181 62.3335 218.474C62.3804 218.767 62.4487 219.021 62.5386 219.236C62.6284 219.447 62.7378 219.62 62.8667 219.757C62.9956 219.894 63.144 219.995 63.312 220.062C63.4839 220.124 63.6733 220.156 63.8804 220.156C64.146 220.156 64.3784 220.105 64.5776 220.003C64.7769 219.902 64.9429 219.743 65.0757 219.529C65.2124 219.31 65.314 219.031 65.3804 218.691C65.4468 218.347 65.48 217.937 65.48 217.46ZM73.5542 220.038V220.929H67.9702V220.15L70.7651 217.038C71.1089 216.656 71.3745 216.331 71.562 216.066C71.7534 215.796 71.8862 215.556 71.9604 215.345C72.0386 215.13 72.0776 214.911 72.0776 214.689C72.0776 214.407 72.019 214.154 71.9019 213.927C71.7886 213.697 71.6206 213.513 71.3979 213.376C71.1753 213.24 70.9058 213.171 70.5894 213.171C70.2104 213.171 69.894 213.245 69.6401 213.394C69.3901 213.538 69.2026 213.741 69.0776 214.003C68.9526 214.265 68.8901 214.566 68.8901 214.906H67.8062C67.8062 214.425 67.9116 213.986 68.1226 213.587C68.3335 213.189 68.646 212.872 69.0601 212.638C69.4741 212.4 69.9839 212.281 70.5894 212.281C71.1284 212.281 71.5894 212.376 71.9722 212.568C72.355 212.755 72.6479 213.021 72.8511 213.365C73.0581 213.704 73.1616 214.103 73.1616 214.56C73.1616 214.81 73.1187 215.064 73.0327 215.322C72.9507 215.575 72.8354 215.829 72.687 216.083C72.5425 216.337 72.3726 216.587 72.1772 216.833C71.9858 217.079 71.7808 217.322 71.562 217.56L69.2769 220.038H73.5542ZM59.8198 229.984V231.284C59.8198 231.984 59.7573 232.573 59.6323 233.054C59.5073 233.534 59.3276 233.921 59.0933 234.214C58.8589 234.507 58.5757 234.72 58.2437 234.853C57.9155 234.982 57.5444 235.046 57.1304 235.046C56.8022 235.046 56.4995 235.005 56.2222 234.923C55.9448 234.841 55.6948 234.71 55.4722 234.531C55.2534 234.347 55.0659 234.109 54.9097 233.816C54.7534 233.523 54.6343 233.167 54.5522 232.749C54.4702 232.331 54.4292 231.843 54.4292 231.284V229.984C54.4292 229.284 54.4917 228.698 54.6167 228.226C54.7456 227.753 54.9272 227.374 55.1616 227.089C55.396 226.8 55.6772 226.593 56.0054 226.468C56.3374 226.343 56.7085 226.281 57.1187 226.281C57.4507 226.281 57.7554 226.322 58.0327 226.404C58.314 226.482 58.564 226.609 58.7827 226.784C59.0015 226.956 59.187 227.187 59.3394 227.476C59.4956 227.761 59.6147 228.111 59.6968 228.525C59.7788 228.939 59.8198 229.425 59.8198 229.984ZM58.73 231.46V229.802C58.73 229.419 58.7065 229.083 58.6597 228.794C58.6167 228.501 58.5522 228.251 58.4663 228.044C58.3804 227.837 58.271 227.669 58.1382 227.54C58.0093 227.411 57.8589 227.318 57.687 227.259C57.519 227.197 57.3296 227.165 57.1187 227.165C56.8608 227.165 56.6323 227.214 56.4331 227.312C56.2339 227.406 56.0659 227.556 55.9292 227.763C55.7964 227.97 55.6948 228.241 55.6245 228.577C55.5542 228.913 55.519 229.322 55.519 229.802V231.46C55.519 231.843 55.5405 232.181 55.5835 232.474C55.6304 232.767 55.6987 233.021 55.7886 233.236C55.8784 233.447 55.9878 233.62 56.1167 233.757C56.2456 233.894 56.394 233.995 56.562 234.062C56.7339 234.124 56.9233 234.156 57.1304 234.156C57.396 234.156 57.6284 234.105 57.8276 234.003C58.0269 233.902 58.1929 233.743 58.3257 233.529C58.4624 233.31 58.564 233.031 58.6304 232.691C58.6968 232.347 58.73 231.937 58.73 231.46ZM63.5874 230.857V231.747H60.728V230.857H63.5874ZM68.0933 226.351V234.929H67.0093V227.704L64.8237 228.501V227.523L67.9233 226.351H68.0933ZM76.8706 234.038V234.929H71.2866V234.15L74.0815 231.038C74.4253 230.656 74.6909 230.331 74.8784 230.066C75.0698 229.796 75.2026 229.556 75.2769 229.345C75.355 229.13 75.394 228.911 75.394 228.689C75.394 228.407 75.3354 228.154 75.2183 227.927C75.105 227.697 74.937 227.513 74.7144 227.376C74.4917 227.24 74.2222 227.171 73.9058 227.171C73.5269 227.171 73.2104 227.245 72.9565 227.394C72.7065 227.538 72.519 227.741 72.394 228.003C72.269 228.265 72.2065 228.566 72.2065 228.906H71.1226C71.1226 228.425 71.228 227.986 71.439 227.587C71.6499 227.189 71.9624 226.872 72.3765 226.638C72.7905 226.4 73.3003 226.281 73.9058 226.281C74.4448 226.281 74.9058 226.376 75.2886 226.568C75.6714 226.755 75.9644 227.021 76.1675 227.365C76.3745 227.704 76.478 228.103 76.478 228.56C76.478 228.81 76.4351 229.064 76.3491 229.322C76.2671 229.575 76.1519 229.829 76.0034 230.083C75.8589 230.337 75.689 230.587 75.4937 230.833C75.3022 231.079 75.0972 231.322 74.8784 231.56L72.5933 234.038H76.8706ZM56.8374 244.857V245.747H53.978V244.857H56.8374ZM63.3706 248.038V248.929H57.7866V248.15L60.5815 245.038C60.9253 244.656 61.1909 244.331 61.3784 244.066C61.5698 243.796 61.7026 243.556 61.7769 243.345C61.855 243.13 61.894 242.911 61.894 242.689C61.894 242.407 61.8354 242.154 61.7183 241.927C61.605 241.697 61.437 241.513 61.2144 241.376C60.9917 241.24 60.7222 241.171 60.4058 241.171C60.0269 241.171 59.7104 241.245 59.4565 241.394C59.2065 241.538 59.019 241.741 58.894 242.003C58.769 242.265 58.7065 242.566 58.7065 242.906H57.6226C57.6226 242.425 57.728 241.986 57.939 241.587C58.1499 241.189 58.4624 240.872 58.8765 240.638C59.2905 240.4 59.8003 240.281 60.4058 240.281C60.9448 240.281 61.4058 240.376 61.7886 240.568C62.1714 240.755 62.4644 241.021 62.6675 241.365C62.8745 241.704 62.978 242.103 62.978 242.56C62.978 242.81 62.9351 243.064 62.8491 243.322C62.7671 243.575 62.6519 243.829 62.5034 244.083C62.3589 244.337 62.189 244.587 61.9937 244.833C61.8022 245.079 61.5972 245.322 61.3784 245.56L59.0933 248.038H63.3706ZM65.6089 248.021H65.7202C66.3452 248.021 66.853 247.933 67.2437 247.757C67.6343 247.581 67.9351 247.345 68.146 247.048C68.3569 246.751 68.5015 246.417 68.5796 246.046C68.6577 245.671 68.6968 245.286 68.6968 244.892V243.585C68.6968 243.198 68.6519 242.855 68.562 242.554C68.4761 242.253 68.355 242.001 68.1987 241.798C68.0464 241.595 67.8726 241.441 67.6772 241.335C67.4819 241.23 67.2749 241.177 67.0562 241.177C66.8062 241.177 66.5815 241.228 66.3823 241.329C66.187 241.427 66.021 241.566 65.8843 241.745C65.7515 241.925 65.6499 242.136 65.5796 242.378C65.5093 242.62 65.4741 242.884 65.4741 243.169C65.4741 243.423 65.5054 243.669 65.5679 243.907C65.6304 244.146 65.7261 244.361 65.855 244.552C65.9839 244.743 66.144 244.896 66.3354 245.009C66.5308 245.118 66.7593 245.173 67.021 245.173C67.2632 245.173 67.4897 245.126 67.7007 245.032C67.9155 244.935 68.105 244.804 68.269 244.64C68.437 244.472 68.5698 244.282 68.6675 244.072C68.769 243.861 68.8276 243.64 68.8433 243.409H69.3589C69.3589 243.734 69.2944 244.054 69.1655 244.37C69.0405 244.683 68.8647 244.968 68.6382 245.226C68.4116 245.484 68.146 245.691 67.8413 245.847C67.5366 245.999 67.2046 246.075 66.8452 246.075C66.4233 246.075 66.0581 245.993 65.7495 245.829C65.4409 245.665 65.187 245.447 64.9878 245.173C64.7925 244.9 64.646 244.595 64.5483 244.259C64.4546 243.919 64.4077 243.575 64.4077 243.228C64.4077 242.822 64.4644 242.441 64.5776 242.085C64.6909 241.73 64.8589 241.417 65.0815 241.148C65.3042 240.874 65.5796 240.661 65.9077 240.509C66.2397 240.357 66.6226 240.281 67.0562 240.281C67.5444 240.281 67.9604 240.378 68.3042 240.573C68.6479 240.769 68.9272 241.031 69.1421 241.359C69.3608 241.687 69.521 242.056 69.6226 242.466C69.7241 242.876 69.7749 243.298 69.7749 243.732V244.124C69.7749 244.566 69.7456 245.015 69.687 245.472C69.6323 245.925 69.5249 246.359 69.3647 246.773C69.2085 247.187 68.98 247.558 68.6792 247.886C68.3784 248.21 67.9858 248.468 67.5015 248.659C67.021 248.847 66.4272 248.941 65.7202 248.941H65.6089V248.021ZM71.3511 248.355C71.3511 248.171 71.4077 248.017 71.521 247.892C71.6382 247.763 71.8062 247.698 72.0249 247.698C72.2437 247.698 72.4097 247.763 72.5229 247.892C72.6401 248.017 72.6987 248.171 72.6987 248.355C72.6987 248.534 72.6401 248.687 72.5229 248.812C72.4097 248.937 72.2437 248.999 72.0249 248.999C71.8062 248.999 71.6382 248.937 71.521 248.812C71.4077 248.687 71.3511 248.534 71.3511 248.355ZM71.3569 243.181C71.3569 242.997 71.4136 242.843 71.5269 242.718C71.644 242.589 71.812 242.525 72.0308 242.525C72.2495 242.525 72.4155 242.589 72.5288 242.718C72.646 242.843 72.7046 242.997 72.7046 243.181C72.7046 243.361 72.646 243.513 72.5288 243.638C72.4155 243.763 72.2495 243.825 72.0308 243.825C71.812 243.825 71.644 243.763 71.5269 243.638C71.4136 243.513 71.3569 243.361 71.3569 243.181ZM58.0269 254.351V262.929H56.9429V255.704L54.7573 256.501V255.523L57.8569 254.351H58.0269ZM66.5933 260.62C66.5933 261.14 66.4722 261.581 66.23 261.945C65.9917 262.304 65.6675 262.577 65.2573 262.765C64.8511 262.952 64.3921 263.046 63.8804 263.046C63.3687 263.046 62.9077 262.952 62.4976 262.765C62.0874 262.577 61.7632 262.304 61.5249 261.945C61.2866 261.581 61.1675 261.14 61.1675 260.62C61.1675 260.281 61.2319 259.97 61.3608 259.689C61.4937 259.404 61.6792 259.156 61.9175 258.945C62.1597 258.734 62.4448 258.572 62.7729 258.458C63.105 258.341 63.4702 258.282 63.8687 258.282C64.3921 258.282 64.8589 258.384 65.269 258.587C65.6792 258.786 66.0015 259.062 66.2358 259.413C66.4741 259.765 66.5933 260.167 66.5933 260.62ZM65.5034 260.597C65.5034 260.281 65.4351 260.001 65.2983 259.759C65.1616 259.513 64.9702 259.322 64.7241 259.185C64.478 259.048 64.1929 258.98 63.8687 258.98C63.5366 258.98 63.2495 259.048 63.0073 259.185C62.769 259.322 62.5835 259.513 62.4507 259.759C62.3179 260.001 62.2515 260.281 62.2515 260.597C62.2515 260.925 62.3159 261.206 62.4448 261.441C62.5776 261.671 62.7651 261.849 63.0073 261.974C63.2534 262.095 63.5444 262.156 63.8804 262.156C64.2163 262.156 64.5054 262.095 64.7476 261.974C64.9897 261.849 65.1753 261.671 65.3042 261.441C65.437 261.206 65.5034 260.925 65.5034 260.597ZM66.394 256.618C66.394 257.032 66.2847 257.406 66.0659 257.738C65.8472 258.07 65.5483 258.331 65.1694 258.523C64.7905 258.714 64.3608 258.81 63.8804 258.81C63.3921 258.81 62.9565 258.714 62.5737 258.523C62.1948 258.331 61.8979 258.07 61.6831 257.738C61.4683 257.406 61.3608 257.032 61.3608 256.618C61.3608 256.122 61.4683 255.7 61.6831 255.353C61.9019 255.005 62.2007 254.74 62.5796 254.556C62.9585 254.372 63.3901 254.281 63.8745 254.281C64.3628 254.281 64.7964 254.372 65.1753 254.556C65.5542 254.74 65.8511 255.005 66.0659 255.353C66.2847 255.7 66.394 256.122 66.394 256.618ZM65.3101 256.636C65.3101 256.351 65.2495 256.099 65.1284 255.88C65.0073 255.661 64.8394 255.49 64.6245 255.365C64.4097 255.236 64.1597 255.171 63.8745 255.171C63.5894 255.171 63.3394 255.232 63.1245 255.353C62.9136 255.47 62.7476 255.638 62.6265 255.857C62.5093 256.075 62.4507 256.335 62.4507 256.636C62.4507 256.929 62.5093 257.185 62.6265 257.404C62.7476 257.622 62.9155 257.792 63.1304 257.913C63.3452 258.034 63.5952 258.095 63.8804 258.095C64.1655 258.095 64.4136 258.034 64.6245 257.913C64.8394 257.792 65.0073 257.622 65.1284 257.404C65.2495 257.185 65.3101 256.929 65.3101 256.636ZM72.1362 254.398V264.511H71.2632V254.398H72.1362ZM60.1655 276.009V276.929H55.6479V276.009H60.1655ZM55.8765 268.398V276.929H54.7456V268.398H55.8765ZM59.5679 272.066V272.986H55.6479V272.066H59.5679ZM60.1069 268.398V269.323H55.6479V268.398H60.1069ZM61.355 276.355C61.355 276.171 61.4116 276.017 61.5249 275.892C61.6421 275.763 61.8101 275.698 62.0288 275.698C62.2476 275.698 62.4136 275.763 62.5269 275.892C62.644 276.017 62.7026 276.171 62.7026 276.355C62.7026 276.534 62.644 276.687 62.5269 276.812C62.4136 276.937 62.2476 276.999 62.0288 276.999C61.8101 276.999 61.6421 276.937 61.5249 276.812C61.4116 276.687 61.355 276.534 61.355 276.355ZM61.3608 271.181C61.3608 270.997 61.4175 270.843 61.5308 270.718C61.6479 270.589 61.8159 270.525 62.0347 270.525C62.2534 270.525 62.4194 270.589 62.5327 270.718C62.6499 270.843 62.7085 270.997 62.7085 271.181C62.7085 271.361 62.6499 271.513 62.5327 271.638C62.4194 271.763 62.2534 271.825 62.0347 271.825C61.8159 271.825 61.6479 271.763 61.5308 271.638C61.4175 271.513 61.3608 271.361 61.3608 271.181ZM58.0269 282.351V290.929H56.9429V283.704L54.7573 284.501V283.523L57.8569 282.351H58.0269ZM66.98 288.058V288.948H60.8159V288.31L64.6362 282.398H65.521L64.5718 284.109L62.0464 288.058H66.98ZM65.7905 282.398V290.929H64.7065V282.398H65.7905ZM73.3433 288.62C73.3433 289.14 73.2222 289.581 72.98 289.945C72.7417 290.304 72.4175 290.577 72.0073 290.765C71.6011 290.952 71.1421 291.046 70.6304 291.046C70.1187 291.046 69.6577 290.952 69.2476 290.765C68.8374 290.577 68.5132 290.304 68.2749 289.945C68.0366 289.581 67.9175 289.14 67.9175 288.62C67.9175 288.281 67.9819 287.97 68.1108 287.689C68.2437 287.404 68.4292 287.156 68.6675 286.945C68.9097 286.734 69.1948 286.572 69.5229 286.458C69.855 286.341 70.2202 286.282 70.6187 286.282C71.1421 286.282 71.6089 286.384 72.019 286.587C72.4292 286.786 72.7515 287.062 72.9858 287.413C73.2241 287.765 73.3433 288.167 73.3433 288.62ZM72.2534 288.597C72.2534 288.281 72.1851 288.001 72.0483 287.759C71.9116 287.513 71.7202 287.322 71.4741 287.185C71.228 287.048 70.9429 286.98 70.6187 286.98C70.2866 286.98 69.9995 287.048 69.7573 287.185C69.519 287.322 69.3335 287.513 69.2007 287.759C69.0679 288.001 69.0015 288.281 69.0015 288.597C69.0015 288.925 69.0659 289.206 69.1948 289.441C69.3276 289.671 69.5151 289.849 69.7573 289.974C70.0034 290.095 70.2944 290.156 70.6304 290.156C70.9663 290.156 71.2554 290.095 71.4976 289.974C71.7397 289.849 71.9253 289.671 72.0542 289.441C72.187 289.206 72.2534 288.925 72.2534 288.597ZM73.144 284.618C73.144 285.032 73.0347 285.406 72.8159 285.738C72.5972 286.07 72.2983 286.331 71.9194 286.523C71.5405 286.714 71.1108 286.81 70.6304 286.81C70.1421 286.81 69.7065 286.714 69.3237 286.523C68.9448 286.331 68.6479 286.07 68.4331 285.738C68.2183 285.406 68.1108 285.032 68.1108 284.618C68.1108 284.122 68.2183 283.7 68.4331 283.353C68.6519 283.005 68.9507 282.74 69.3296 282.556C69.7085 282.372 70.1401 282.281 70.6245 282.281C71.1128 282.281 71.5464 282.372 71.9253 282.556C72.3042 282.74 72.6011 283.005 72.8159 283.353C73.0347 283.7 73.144 284.122 73.144 284.618ZM72.0601 284.636C72.0601 284.351 71.9995 284.099 71.8784 283.88C71.7573 283.661 71.5894 283.49 71.3745 283.365C71.1597 283.236 70.9097 283.171 70.6245 283.171C70.3394 283.171 70.0894 283.232 69.8745 283.353C69.6636 283.47 69.4976 283.638 69.3765 283.857C69.2593 284.075 69.2007 284.335 69.2007 284.636C69.2007 284.929 69.2593 285.185 69.3765 285.404C69.4976 285.622 69.6655 285.792 69.8804 285.913C70.0952 286.034 70.3452 286.095 70.6304 286.095C70.9155 286.095 71.1636 286.034 71.3745 285.913C71.5894 285.792 71.7573 285.622 71.8784 285.404C71.9995 285.185 72.0601 284.929 72.0601 284.636ZM55.6597 296.398V306.511H54.7866V296.398H55.6597ZM65.1987 302.773C65.1987 302.573 65.1675 302.398 65.105 302.245C65.0464 302.089 64.9409 301.948 64.7886 301.823C64.6401 301.698 64.4331 301.579 64.1675 301.466C63.9058 301.353 63.5737 301.238 63.1714 301.12C62.7495 300.995 62.3687 300.857 62.0288 300.704C61.689 300.548 61.3979 300.37 61.1558 300.171C60.9136 299.972 60.728 299.743 60.5991 299.486C60.4702 299.228 60.4058 298.933 60.4058 298.601C60.4058 298.269 60.4741 297.962 60.6108 297.681C60.7476 297.4 60.9429 297.156 61.1968 296.948C61.4546 296.738 61.7612 296.573 62.1167 296.456C62.4722 296.339 62.8687 296.281 63.3062 296.281C63.9468 296.281 64.4897 296.404 64.9351 296.65C65.3843 296.892 65.7261 297.21 65.9604 297.605C66.1948 297.995 66.312 298.413 66.312 298.859H65.187C65.187 298.538 65.1187 298.255 64.9819 298.009C64.8452 297.759 64.6382 297.564 64.3608 297.423C64.0835 297.279 63.7319 297.206 63.3062 297.206C62.9038 297.206 62.5718 297.267 62.3101 297.388C62.0483 297.509 61.853 297.673 61.7241 297.88C61.5991 298.087 61.5366 298.323 61.5366 298.589C61.5366 298.769 61.5737 298.933 61.6479 299.081C61.7261 299.226 61.8452 299.361 62.0054 299.486C62.1694 299.611 62.3765 299.726 62.6265 299.831C62.8804 299.937 63.1831 300.038 63.5347 300.136C64.019 300.273 64.437 300.425 64.7886 300.593C65.1401 300.761 65.4292 300.95 65.6558 301.161C65.8862 301.368 66.0562 301.605 66.1655 301.87C66.2788 302.132 66.3354 302.429 66.3354 302.761C66.3354 303.109 66.2651 303.423 66.1245 303.704C65.9839 303.986 65.7827 304.226 65.521 304.425C65.2593 304.624 64.9448 304.779 64.5776 304.888C64.2144 304.993 63.8081 305.046 63.3589 305.046C62.9644 305.046 62.5757 304.991 62.1929 304.882C61.814 304.773 61.4683 304.609 61.1558 304.39C60.8472 304.171 60.5991 303.902 60.4116 303.581C60.228 303.257 60.1362 302.882 60.1362 302.456H61.2612C61.2612 302.749 61.3179 303.001 61.4312 303.212C61.5444 303.419 61.6987 303.591 61.894 303.728C62.0933 303.865 62.3179 303.966 62.5679 304.032C62.8218 304.095 63.0854 304.126 63.3589 304.126C63.7534 304.126 64.0874 304.072 64.3608 303.962C64.6343 303.853 64.8413 303.697 64.9819 303.493C65.1265 303.29 65.1987 303.05 65.1987 302.773ZM67.5659 304.355C67.5659 304.171 67.6226 304.017 67.7358 303.892C67.853 303.763 68.021 303.698 68.2397 303.698C68.4585 303.698 68.6245 303.763 68.7378 303.892C68.855 304.017 68.9136 304.171 68.9136 304.355C68.9136 304.534 68.855 304.687 68.7378 304.812C68.6245 304.937 68.4585 304.999 68.2397 304.999C68.021 304.999 67.853 304.937 67.7358 304.812C67.6226 304.687 67.5659 304.534 67.5659 304.355ZM67.5718 299.181C67.5718 298.997 67.6284 298.843 67.7417 298.718C67.8589 298.589 68.0269 298.525 68.2456 298.525C68.4644 298.525 68.6304 298.589 68.7437 298.718C68.8608 298.843 68.9194 298.997 68.9194 299.181C68.9194 299.361 68.8608 299.513 68.7437 299.638C68.6304 299.763 68.4644 299.825 68.2456 299.825C68.0269 299.825 67.8589 299.763 67.7417 299.638C67.6284 299.513 67.5718 299.361 67.5718 299.181ZM60.0542 318.038V318.929H54.4702V318.15L57.2651 315.038C57.6089 314.656 57.8745 314.331 58.062 314.066C58.2534 313.796 58.3862 313.556 58.4604 313.345C58.5386 313.13 58.5776 312.911 58.5776 312.689C58.5776 312.407 58.519 312.154 58.4019 311.927C58.2886 311.697 58.1206 311.513 57.8979 311.376C57.6753 311.24 57.4058 311.171 57.0894 311.171C56.7104 311.171 56.394 311.245 56.1401 311.394C55.8901 311.538 55.7026 311.741 55.5776 312.003C55.4526 312.265 55.3901 312.566 55.3901 312.906H54.3062C54.3062 312.425 54.4116 311.986 54.6226 311.587C54.8335 311.189 55.146 310.872 55.5601 310.638C55.9741 310.4 56.4839 310.281 57.0894 310.281C57.6284 310.281 58.0894 310.376 58.4722 310.568C58.855 310.755 59.1479 311.021 59.3511 311.365C59.5581 311.704 59.6616 312.103 59.6616 312.56C59.6616 312.81 59.6187 313.064 59.5327 313.322C59.4507 313.575 59.3354 313.829 59.187 314.083C59.0425 314.337 58.8726 314.587 58.6772 314.833C58.4858 315.079 58.2808 315.322 58.062 315.56L55.7769 318.038H60.0542ZM62.5854 314.868L61.7183 314.646L62.146 310.398H66.5229V311.4H63.0659L62.8081 313.72C62.9644 313.63 63.1616 313.546 63.3999 313.468C63.6421 313.39 63.9194 313.351 64.2319 313.351C64.6265 313.351 64.98 313.419 65.2925 313.556C65.605 313.689 65.8706 313.88 66.0894 314.13C66.312 314.38 66.4819 314.681 66.5991 315.032C66.7163 315.384 66.7749 315.777 66.7749 316.21C66.7749 316.62 66.7183 316.997 66.605 317.341C66.4956 317.685 66.3296 317.986 66.1069 318.243C65.8843 318.497 65.603 318.695 65.2632 318.835C64.9272 318.976 64.5308 319.046 64.0737 319.046C63.73 319.046 63.4038 318.999 63.0952 318.906C62.7905 318.808 62.5171 318.661 62.2749 318.466C62.0366 318.267 61.8413 318.021 61.689 317.728C61.5405 317.431 61.4468 317.083 61.4077 316.685H62.439C62.4858 317.005 62.5796 317.275 62.7202 317.493C62.8608 317.712 63.0444 317.878 63.271 317.991C63.5015 318.101 63.769 318.156 64.0737 318.156C64.3315 318.156 64.5601 318.111 64.7593 318.021C64.9585 317.931 65.1265 317.802 65.2632 317.634C65.3999 317.466 65.5034 317.263 65.5737 317.025C65.6479 316.786 65.6851 316.519 65.6851 316.222C65.6851 315.952 65.6479 315.702 65.5737 315.472C65.4995 315.241 65.3882 315.04 65.2397 314.868C65.0952 314.697 64.9175 314.564 64.7065 314.47C64.4956 314.372 64.2534 314.323 63.98 314.323C63.6167 314.323 63.3413 314.372 63.1538 314.47C62.9702 314.568 62.7808 314.7 62.5854 314.868ZM72.1362 310.398V320.511H71.2632V310.398H72.1362ZM57.8921 329.583H55.6128V328.663H57.8921C58.3335 328.663 58.6909 328.593 58.9644 328.452C59.2378 328.312 59.437 328.116 59.562 327.866C59.6909 327.616 59.7554 327.331 59.7554 327.011C59.7554 326.718 59.6909 326.443 59.562 326.185C59.437 325.927 59.2378 325.72 58.9644 325.564C58.6909 325.404 58.3335 325.323 57.8921 325.323H55.8765V332.929H54.7456V324.398H57.8921C58.5366 324.398 59.0815 324.509 59.5269 324.732C59.9722 324.954 60.3101 325.263 60.5405 325.657C60.771 326.048 60.8862 326.495 60.8862 326.999C60.8862 327.546 60.771 328.013 60.5405 328.4C60.3101 328.786 59.9722 329.081 59.5269 329.284C59.0815 329.484 58.5366 329.583 57.8921 329.583ZM62.105 332.355C62.105 332.171 62.1616 332.017 62.2749 331.892C62.3921 331.763 62.5601 331.698 62.7788 331.698C62.9976 331.698 63.1636 331.763 63.2769 331.892C63.394 332.017 63.4526 332.171 63.4526 332.355C63.4526 332.534 63.394 332.687 63.2769 332.812C63.1636 332.937 62.9976 332.999 62.7788 332.999C62.5601 332.999 62.3921 332.937 62.2749 332.812C62.1616 332.687 62.105 332.534 62.105 332.355ZM62.1108 327.181C62.1108 326.997 62.1675 326.843 62.2808 326.718C62.3979 326.589 62.5659 326.525 62.7847 326.525C63.0034 326.525 63.1694 326.589 63.2827 326.718C63.3999 326.843 63.4585 326.997 63.4585 327.181C63.4585 327.361 63.3999 327.513 63.2827 327.638C63.1694 327.763 63.0034 327.825 62.7847 327.825C62.5659 327.825 62.3979 327.763 62.2808 327.638C62.1675 327.513 62.1108 327.361 62.1108 327.181ZM58.6245 338.386H58.7183V339.306H58.6245C58.0503 339.306 57.5698 339.4 57.1831 339.587C56.7964 339.771 56.4897 340.019 56.2632 340.331C56.0366 340.64 55.8726 340.988 55.771 341.374C55.6733 341.761 55.6245 342.154 55.6245 342.552V343.806C55.6245 344.185 55.6694 344.521 55.7593 344.814C55.8491 345.103 55.9722 345.347 56.1284 345.546C56.2847 345.745 56.4604 345.896 56.6558 345.997C56.855 346.099 57.062 346.15 57.2769 346.15C57.5269 346.15 57.7495 346.103 57.9448 346.009C58.1401 345.911 58.3042 345.777 58.437 345.605C58.5737 345.429 58.6772 345.222 58.7476 344.984C58.8179 344.745 58.853 344.484 58.853 344.198C58.853 343.945 58.8218 343.7 58.7593 343.466C58.6968 343.228 58.6011 343.017 58.4722 342.833C58.3433 342.646 58.1812 342.499 57.9858 342.394C57.7944 342.284 57.5659 342.23 57.3003 342.23C56.9995 342.23 56.7183 342.304 56.4565 342.452C56.1987 342.597 55.9858 342.788 55.8179 343.027C55.6538 343.261 55.5601 343.517 55.5366 343.794L54.9624 343.788C55.0171 343.351 55.1187 342.978 55.2671 342.669C55.4194 342.357 55.6069 342.103 55.8296 341.907C56.0562 341.708 56.3081 341.564 56.5854 341.474C56.8667 341.38 57.1636 341.333 57.4761 341.333C57.9019 341.333 58.269 341.413 58.5776 341.573C58.8862 341.734 59.1401 341.948 59.3394 342.218C59.5386 342.484 59.6851 342.784 59.7788 343.12C59.8765 343.452 59.9253 343.794 59.9253 344.146C59.9253 344.548 59.8687 344.925 59.7554 345.277C59.6421 345.628 59.4722 345.937 59.2456 346.202C59.0229 346.468 58.7476 346.675 58.4194 346.823C58.0913 346.972 57.7104 347.046 57.2769 347.046C56.8159 347.046 56.4136 346.952 56.0698 346.765C55.7261 346.573 55.4409 346.32 55.2144 346.003C54.9878 345.687 54.8179 345.335 54.7046 344.948C54.5913 344.562 54.5347 344.169 54.5347 343.771V343.261C54.5347 342.659 54.5952 342.07 54.7163 341.491C54.8374 340.913 55.0464 340.39 55.3433 339.921C55.644 339.452 56.0601 339.079 56.5913 338.802C57.1226 338.525 57.8003 338.386 58.6245 338.386ZM66.5698 341.984V343.284C66.5698 343.984 66.5073 344.573 66.3823 345.054C66.2573 345.534 66.0776 345.921 65.8433 346.214C65.6089 346.507 65.3257 346.72 64.9937 346.853C64.6655 346.982 64.2944 347.046 63.8804 347.046C63.5522 347.046 63.2495 347.005 62.9722 346.923C62.6948 346.841 62.4448 346.71 62.2222 346.531C62.0034 346.347 61.8159 346.109 61.6597 345.816C61.5034 345.523 61.3843 345.167 61.3022 344.749C61.2202 344.331 61.1792 343.843 61.1792 343.284V341.984C61.1792 341.284 61.2417 340.698 61.3667 340.226C61.4956 339.753 61.6772 339.374 61.9116 339.089C62.146 338.8 62.4272 338.593 62.7554 338.468C63.0874 338.343 63.4585 338.281 63.8687 338.281C64.2007 338.281 64.5054 338.322 64.7827 338.404C65.064 338.482 65.314 338.609 65.5327 338.784C65.7515 338.956 65.937 339.187 66.0894 339.476C66.2456 339.761 66.3647 340.111 66.4468 340.525C66.5288 340.939 66.5698 341.425 66.5698 341.984ZM65.48 343.46V341.802C65.48 341.419 65.4565 341.083 65.4097 340.794C65.3667 340.501 65.3022 340.251 65.2163 340.044C65.1304 339.837 65.021 339.669 64.8882 339.54C64.7593 339.411 64.6089 339.318 64.437 339.259C64.269 339.197 64.0796 339.165 63.8687 339.165C63.6108 339.165 63.3823 339.214 63.1831 339.312C62.9839 339.406 62.8159 339.556 62.6792 339.763C62.5464 339.97 62.4448 340.241 62.3745 340.577C62.3042 340.913 62.269 341.322 62.269 341.802V343.46C62.269 343.843 62.2905 344.181 62.3335 344.474C62.3804 344.767 62.4487 345.021 62.5386 345.236C62.6284 345.447 62.7378 345.62 62.8667 345.757C62.9956 345.894 63.144 345.995 63.312 346.062C63.4839 346.124 63.6733 346.156 63.8804 346.156C64.146 346.156 64.3784 346.105 64.5776 346.003C64.7769 345.902 64.9429 345.743 65.0757 345.529C65.2124 345.31 65.314 345.031 65.3804 344.691C65.4468 344.347 65.48 343.937 65.48 343.46Z" fill="black"/>
</g>
<defs>
<clipPath id="clip0_326_5749">
<rect width="134" height="139" fill="white"/>
</clipPath>
</defs>
</svg>
