<svg width="45" height="45" viewBox="0 0 65 65" fill="none" xmlns="http://www.w3.org/2000/svg">
<g clip-path="url(#clip0_326_5716)">
<path fill-rule="evenodd" clip-rule="evenodd" d="M0.579731 8.12511H19.1609C19.2601 8.1232 19.3581 8.14672 19.4456 8.19342C19.529 8.23974 19.5995 8.3063 19.6505 8.38697L42.2736 44.5588C42.3338 44.65 42.3659 44.7569 42.3659 44.8662C42.3659 44.9755 42.3338 45.0824 42.2736 45.1736L33.0171 59.9407C32.9661 60.0213 32.8956 60.0879 32.8122 60.1342C32.7267 60.1811 32.6307 60.2056 32.5332 60.2056C32.4357 60.2056 32.3398 60.1811 32.2543 60.1342C32.1708 60.0879 32.1003 60.0213 32.0493 59.9407L0.0901533 9.00179C0.0349845 8.91672 0.00353947 8.81845 -0.000930988 8.71716C-0.00539616 8.61411 0.0182158 8.5118 0.0673822 8.42113C0.118401 8.33064 0.193211 8.25583 0.283707 8.20481C0.373238 8.15167 0.475625 8.12411 0.579731 8.12511ZM39.5296 8.12511H64.4184C64.5225 8.12411 64.6249 8.15167 64.7144 8.20481C64.7924 8.26044 64.855 8.33485 64.8966 8.42113C64.9452 8.512 64.9688 8.61417 64.9649 8.71716C64.9673 8.81637 64.9438 8.91449 64.8966 9.00179L52.4636 28.8582C52.4126 28.9388 52.3421 29.0054 52.2587 29.0517C52.1732 29.0986 52.0772 29.1231 51.9797 29.1231C51.8822 29.1231 51.7863 29.0986 51.7008 29.0517C51.6173 29.0054 51.5468 28.9388 51.4958 28.8582L39.0514 9.00179C38.9963 8.91672 38.9648 8.81845 38.9604 8.71716C38.9559 8.61411 38.9795 8.5118 39.0287 8.42113C39.0797 8.33064 39.1545 8.25583 39.245 8.20481C39.3312 8.15364 39.4294 8.12615 39.5296 8.12511Z" fill="#FFC107"/>
</g>
<defs>
<clipPath id="clip0_326_5716">
<rect width="65" height="65" fill="white"/>
</clipPath>
</defs>
</svg>
